<mxfile host="app.diagrams.net" modified="2023-10-23T05:10:22.903Z" agent="Mozilla/5.0 (Windows NT 10.0; Win64; x64) AppleWebKit/537.36 (KHTML, like Gecko) Chrome/120.0.0.0 Safari/537.36 Edg/120.0.0.0" etag="MzBFH8ASK-zc3FmGFaEQ" version="22.0.6" type="github">
  <diagram name="Page-1" id="e56a1550-8fbb-45ad-956c-1786394a9013">
    <mxGraphModel dx="2856" dy="665" grid="1" gridSize="10" guides="1" tooltips="1" connect="1" arrows="1" fold="1" page="0" pageScale="1" pageWidth="1100" pageHeight="1700" background="none" math="0" shadow="0">
      <root>
        <mxCell id="0" />
        <mxCell id="1" parent="0" />
        <mxCell id="5XdCu-Sr5xr-vJQQU0_O-6" style="rounded=0;orthogonalLoop=1;jettySize=auto;html=1;startArrow=ERoneToMany;startFill=0;strokeWidth=2;endArrow=ERmandOne;endFill=0;editable=1;movable=1;resizable=1;rotatable=1;deletable=1;locked=0;connectable=1;comic=0;enumerate=0;fontStyle=1;edgeStyle=orthogonalEdgeStyle;strokeColor=#990000;fontColor=#990000;" parent="1" source="XRP2DXV7LQ1C8lFrC8NO-23" target="XRP2DXV7LQ1C8lFrC8NO-67" edge="1">
          <mxGeometry relative="1" as="geometry">
            <Array as="points">
              <mxPoint x="-970" y="700" />
              <mxPoint x="-970" y="700" />
            </Array>
          </mxGeometry>
        </mxCell>
        <mxCell id="5XdCu-Sr5xr-vJQQU0_O-42" value="consists of" style="edgeLabel;html=1;align=center;verticalAlign=middle;resizable=1;points=[];editable=1;movable=1;rotatable=1;deletable=1;locked=0;connectable=1;comic=0;enumerate=0;fontStyle=1;fontColor=#990000;" parent="5XdCu-Sr5xr-vJQQU0_O-6" vertex="1" connectable="0">
          <mxGeometry relative="1" as="geometry">
            <mxPoint as="offset" />
          </mxGeometry>
        </mxCell>
        <mxCell id="5XdCu-Sr5xr-vJQQU0_O-7" style="rounded=0;orthogonalLoop=1;jettySize=auto;html=1;endArrow=ERzeroToMany;endFill=0;startArrow=ERmandOne;startFill=0;editable=1;movable=1;resizable=1;rotatable=1;deletable=1;locked=0;connectable=1;comic=0;enumerate=0;fontStyle=1;strokeColor=#990000;fontColor=#990000;strokeWidth=2;edgeStyle=orthogonalEdgeStyle;" parent="1" source="XRP2DXV7LQ1C8lFrC8NO-23" target="XRP2DXV7LQ1C8lFrC8NO-214" edge="1">
          <mxGeometry relative="1" as="geometry">
            <mxPoint x="-310" y="920" as="sourcePoint" />
            <Array as="points">
              <mxPoint x="-820" y="820" />
              <mxPoint x="-820" y="820" />
            </Array>
          </mxGeometry>
        </mxCell>
        <mxCell id="5XdCu-Sr5xr-vJQQU0_O-13" value="has" style="edgeLabel;html=1;align=center;verticalAlign=middle;resizable=1;points=[];editable=1;movable=1;rotatable=1;deletable=1;locked=0;connectable=1;comic=0;enumerate=0;fontStyle=1;fontColor=#990000;" parent="5XdCu-Sr5xr-vJQQU0_O-7" vertex="1" connectable="0">
          <mxGeometry relative="1" as="geometry">
            <mxPoint as="offset" />
          </mxGeometry>
        </mxCell>
        <mxCell id="XRP2DXV7LQ1C8lFrC8NO-23" value="pizza_purchase" style="swimlane;html=1;fontStyle=0;childLayout=stackLayout;horizontal=1;startSize=20;fillColor=#a0a0a0;horizontalStack=0;resizeParent=1;resizeLast=0;collapsible=1;marginBottom=0;swimlaneFillColor=#ffffff;align=center;rounded=0;shadow=0;comic=0;labelBackgroundColor=none;strokeWidth=2;fontFamily=Verdana;fontSize=14;editable=1;movable=1;resizable=1;rotatable=1;deletable=1;locked=0;connectable=1;enumerate=0;strokeColor=#007FFF;fontColor=#000000;spacing=2;spacingBottom=5;" parent="1" vertex="1">
          <mxGeometry x="-880" y="640" width="160" height="120" as="geometry" />
        </mxCell>
        <mxCell id="XRP2DXV7LQ1C8lFrC8NO-24" value="pizza_id" style="shape=partialRectangle;top=0;left=0;right=0;bottom=0;html=1;align=left;verticalAlign=middle;fillColor=none;spacingLeft=60;spacingRight=4;whiteSpace=wrap;overflow=hidden;rotatable=1;points=[[0,0.5],[1,0.5]];portConstraint=eastwest;dropTarget=0;fontStyle=5;editable=1;movable=1;resizable=1;deletable=1;locked=0;connectable=1;comic=0;enumerate=0;" parent="XRP2DXV7LQ1C8lFrC8NO-23" vertex="1">
          <mxGeometry y="20" width="160" height="20" as="geometry" />
        </mxCell>
        <mxCell id="XRP2DXV7LQ1C8lFrC8NO-25" value="PK,FK1" style="shape=partialRectangle;fontStyle=1;top=0;left=0;bottom=0;html=1;fillColor=none;align=left;verticalAlign=middle;spacingLeft=4;spacingRight=4;whiteSpace=wrap;overflow=hidden;rotatable=1;points=[];portConstraint=eastwest;part=1;editable=1;movable=1;resizable=1;deletable=1;locked=0;connectable=1;comic=0;enumerate=0;" parent="XRP2DXV7LQ1C8lFrC8NO-24" vertex="1" connectable="0">
          <mxGeometry width="60" height="20" as="geometry" />
        </mxCell>
        <mxCell id="XRP2DXV7LQ1C8lFrC8NO-26" value="order_id" style="shape=partialRectangle;top=0;left=0;right=0;bottom=1;html=1;align=left;verticalAlign=middle;fillColor=none;spacingLeft=60;spacingRight=4;whiteSpace=wrap;overflow=hidden;rotatable=1;points=[[0,0.5],[1,0.5]];portConstraint=eastwest;dropTarget=0;fontStyle=5;editable=1;movable=1;resizable=1;deletable=1;locked=0;connectable=1;comic=0;enumerate=0;" parent="XRP2DXV7LQ1C8lFrC8NO-23" vertex="1">
          <mxGeometry y="40" width="160" height="20" as="geometry" />
        </mxCell>
        <mxCell id="XRP2DXV7LQ1C8lFrC8NO-27" value="PK,FK2" style="shape=partialRectangle;fontStyle=1;top=0;left=0;bottom=0;html=1;fillColor=none;align=left;verticalAlign=middle;spacingLeft=4;spacingRight=4;whiteSpace=wrap;overflow=hidden;rotatable=1;points=[];portConstraint=eastwest;part=1;editable=1;movable=1;resizable=1;deletable=1;locked=0;connectable=1;comic=0;enumerate=0;" parent="XRP2DXV7LQ1C8lFrC8NO-26" vertex="1" connectable="0">
          <mxGeometry width="60" height="20" as="geometry" />
        </mxCell>
        <mxCell id="XRP2DXV7LQ1C8lFrC8NO-28" value="base_cost" style="shape=partialRectangle;top=0;left=0;right=0;bottom=0;html=1;align=left;verticalAlign=middle;fillColor=none;spacingLeft=60;spacingRight=4;whiteSpace=wrap;overflow=hidden;rotatable=1;points=[[0,0.5],[1,0.5]];portConstraint=eastwest;dropTarget=0;editable=1;movable=1;resizable=1;deletable=1;locked=0;connectable=1;comic=0;enumerate=0;fontStyle=1" parent="XRP2DXV7LQ1C8lFrC8NO-23" vertex="1">
          <mxGeometry y="60" width="160" height="20" as="geometry" />
        </mxCell>
        <mxCell id="XRP2DXV7LQ1C8lFrC8NO-29" value="" style="shape=partialRectangle;top=0;left=0;bottom=0;html=1;fillColor=none;align=left;verticalAlign=top;spacingLeft=4;spacingRight=4;whiteSpace=wrap;overflow=hidden;rotatable=1;points=[];portConstraint=eastwest;part=1;editable=1;movable=1;resizable=1;deletable=1;locked=0;connectable=1;comic=0;enumerate=0;fontStyle=1" parent="XRP2DXV7LQ1C8lFrC8NO-28" vertex="1" connectable="0">
          <mxGeometry width="60" height="20" as="geometry" />
        </mxCell>
        <mxCell id="XRP2DXV7LQ1C8lFrC8NO-30" value="base_price" style="shape=partialRectangle;top=0;left=0;right=0;bottom=0;html=1;align=left;verticalAlign=middle;fillColor=none;spacingLeft=60;spacingRight=4;whiteSpace=wrap;overflow=hidden;rotatable=1;points=[[0,0.5],[1,0.5]];portConstraint=eastwest;dropTarget=0;editable=1;movable=1;resizable=1;deletable=1;locked=0;connectable=1;comic=0;enumerate=0;fontStyle=1" parent="XRP2DXV7LQ1C8lFrC8NO-23" vertex="1">
          <mxGeometry y="80" width="160" height="20" as="geometry" />
        </mxCell>
        <mxCell id="XRP2DXV7LQ1C8lFrC8NO-31" value="" style="shape=partialRectangle;top=0;left=0;bottom=0;html=1;fillColor=none;align=left;verticalAlign=top;spacingLeft=4;spacingRight=4;whiteSpace=wrap;overflow=hidden;rotatable=1;points=[];portConstraint=eastwest;part=1;editable=1;movable=1;resizable=1;deletable=1;locked=0;connectable=1;comic=0;enumerate=0;fontStyle=1" parent="XRP2DXV7LQ1C8lFrC8NO-30" vertex="1" connectable="0">
          <mxGeometry width="60" height="20" as="geometry" />
        </mxCell>
        <mxCell id="XRP2DXV7LQ1C8lFrC8NO-47" value="total_discount" style="shape=partialRectangle;top=0;left=0;right=0;bottom=0;html=1;align=left;verticalAlign=middle;fillColor=none;spacingLeft=60;spacingRight=4;whiteSpace=wrap;overflow=hidden;rotatable=1;points=[[0,0.5],[1,0.5]];portConstraint=eastwest;dropTarget=0;editable=1;movable=1;resizable=1;deletable=1;locked=0;connectable=1;comic=0;enumerate=0;fontStyle=1" parent="XRP2DXV7LQ1C8lFrC8NO-23" vertex="1">
          <mxGeometry y="100" width="160" height="20" as="geometry" />
        </mxCell>
        <mxCell id="XRP2DXV7LQ1C8lFrC8NO-48" value="" style="shape=partialRectangle;top=0;left=0;bottom=0;html=1;fillColor=none;align=left;verticalAlign=top;spacingLeft=4;spacingRight=4;whiteSpace=wrap;overflow=hidden;rotatable=1;points=[];portConstraint=eastwest;part=1;editable=1;movable=1;resizable=1;deletable=1;locked=0;connectable=1;comic=0;enumerate=0;fontStyle=1" parent="XRP2DXV7LQ1C8lFrC8NO-47" vertex="1" connectable="0">
          <mxGeometry width="60" height="20" as="geometry" />
        </mxCell>
        <mxCell id="XRP2DXV7LQ1C8lFrC8NO-150" style="rounded=0;orthogonalLoop=1;jettySize=auto;html=1;endArrow=none;endFill=0;entryX=0.5;entryY=0;entryDx=0;entryDy=0;editable=1;movable=1;resizable=1;rotatable=1;deletable=1;locked=0;connectable=1;comic=0;enumerate=0;edgeStyle=orthogonalEdgeStyle;fontStyle=1" parent="1" source="XRP2DXV7LQ1C8lFrC8NO-67" target="XRP2DXV7LQ1C8lFrC8NO-143" edge="1">
          <mxGeometry relative="1" as="geometry">
            <mxPoint x="300" y="1080" as="sourcePoint" />
            <mxPoint x="180" y="970" as="targetPoint" />
            <Array as="points">
              <mxPoint x="-1400" y="830" />
              <mxPoint x="-1400" y="830" />
            </Array>
          </mxGeometry>
        </mxCell>
        <mxCell id="XRP2DXV7LQ1C8lFrC8NO-151" style="rounded=0;orthogonalLoop=1;jettySize=auto;html=1;endArrow=none;endFill=0;entryX=0.5;entryY=1;entryDx=0;entryDy=0;editable=1;movable=1;resizable=1;rotatable=1;deletable=1;locked=0;connectable=1;comic=0;enumerate=0;edgeStyle=orthogonalEdgeStyle;fontStyle=1" parent="1" source="XRP2DXV7LQ1C8lFrC8NO-123" target="XRP2DXV7LQ1C8lFrC8NO-143" edge="1">
          <mxGeometry relative="1" as="geometry">
            <mxPoint x="280" y="1180" as="targetPoint" />
            <Array as="points">
              <mxPoint x="-1250" y="890" />
              <mxPoint x="-1400" y="890" />
            </Array>
          </mxGeometry>
        </mxCell>
        <mxCell id="XRP2DXV7LQ1C8lFrC8NO-130" value="&lt;span style=&quot;font-weight: normal;&quot;&gt;&lt;font color=&quot;#000000&quot;&gt;pick_up&lt;/font&gt;&lt;/span&gt;" style="swimlane;html=1;fontStyle=1;childLayout=stackLayout;horizontal=1;startSize=30;fillColor=#a0a0a0;horizontalStack=0;resizeParent=1;resizeLast=0;collapsible=1;marginBottom=0;swimlaneFillColor=#ffffff;align=center;rounded=0;shadow=0;comic=0;labelBackgroundColor=none;strokeWidth=2;fontFamily=Verdana;fontSize=14;editable=1;movable=1;resizable=1;rotatable=1;deletable=1;locked=0;connectable=1;enumerate=0;strokeColor=#007FFF;fontColor=#ffffff;verticalAlign=middle;spacing=2;spacingBottom=5;" parent="1" vertex="1">
          <mxGeometry x="-1470" y="920" width="140" height="70" as="geometry" />
        </mxCell>
        <mxCell id="XRP2DXV7LQ1C8lFrC8NO-131" value="order_id" style="shape=partialRectangle;top=0;left=0;right=0;bottom=1;html=1;align=left;verticalAlign=middle;fillColor=none;spacingLeft=60;spacingRight=4;whiteSpace=wrap;overflow=hidden;rotatable=1;points=[[0,0.5],[1,0.5]];portConstraint=eastwest;dropTarget=0;fontStyle=5;editable=1;movable=1;resizable=1;deletable=1;locked=0;connectable=1;comic=0;enumerate=0;" parent="XRP2DXV7LQ1C8lFrC8NO-130" vertex="1">
          <mxGeometry y="30" width="140" height="20" as="geometry" />
        </mxCell>
        <mxCell id="XRP2DXV7LQ1C8lFrC8NO-132" value="PK,FK1" style="shape=partialRectangle;fontStyle=1;top=0;left=0;bottom=0;html=1;fillColor=none;align=left;verticalAlign=middle;spacingLeft=4;spacingRight=4;whiteSpace=wrap;overflow=hidden;rotatable=1;points=[];portConstraint=eastwest;part=1;editable=1;movable=1;resizable=1;deletable=1;locked=0;connectable=1;comic=0;enumerate=0;" parent="XRP2DXV7LQ1C8lFrC8NO-131" vertex="1" connectable="0">
          <mxGeometry width="60" height="20" as="geometry" />
        </mxCell>
        <mxCell id="XRP2DXV7LQ1C8lFrC8NO-333" value="customer_id" style="shape=partialRectangle;top=0;left=0;right=0;bottom=0;html=1;align=left;verticalAlign=middle;fillColor=none;spacingLeft=60;spacingRight=4;whiteSpace=wrap;overflow=hidden;rotatable=1;points=[[0,0.5],[1,0.5]];portConstraint=eastwest;dropTarget=0;editable=1;movable=1;resizable=1;deletable=1;locked=0;connectable=1;comic=0;enumerate=0;fontStyle=1" parent="XRP2DXV7LQ1C8lFrC8NO-130" vertex="1">
          <mxGeometry y="50" width="140" height="20" as="geometry" />
        </mxCell>
        <mxCell id="XRP2DXV7LQ1C8lFrC8NO-334" value="&amp;nbsp; &amp;nbsp; &amp;nbsp; FK2" style="shape=partialRectangle;top=0;left=0;bottom=0;html=1;fillColor=none;align=left;verticalAlign=middle;spacingLeft=4;spacingRight=4;whiteSpace=wrap;overflow=hidden;rotatable=1;points=[];portConstraint=eastwest;part=1;editable=1;movable=1;resizable=1;deletable=1;locked=0;connectable=1;comic=0;enumerate=0;fontStyle=1" parent="XRP2DXV7LQ1C8lFrC8NO-333" vertex="1" connectable="0">
          <mxGeometry width="60" height="20" as="geometry" />
        </mxCell>
        <mxCell id="XRP2DXV7LQ1C8lFrC8NO-214" value="pizza_discount" style="swimlane;html=1;fontStyle=0;childLayout=stackLayout;horizontal=1;startSize=30;fillColor=#a0a0a0;horizontalStack=0;resizeParent=1;resizeLast=0;collapsible=1;marginBottom=0;swimlaneFillColor=#ffffff;align=center;rounded=0;shadow=0;comic=0;labelBackgroundColor=none;strokeWidth=2;fontFamily=Verdana;fontSize=14;editable=1;movable=1;resizable=1;rotatable=1;deletable=1;locked=0;connectable=1;enumerate=0;strokeColor=#007FFF;fontColor=#000000;spacing=2;spacingBottom=5;" parent="1" vertex="1">
          <mxGeometry x="-880" y="880" width="160" height="120" as="geometry" />
        </mxCell>
        <mxCell id="XRP2DXV7LQ1C8lFrC8NO-215" value="pizza_id" style="shape=partialRectangle;top=0;left=0;right=0;bottom=0;html=1;align=left;verticalAlign=middle;fillColor=none;spacingLeft=60;spacingRight=4;whiteSpace=wrap;overflow=hidden;rotatable=1;points=[[0,0.5],[1,0.5]];portConstraint=eastwest;dropTarget=0;fontStyle=5;editable=1;movable=1;resizable=1;deletable=1;locked=0;connectable=1;comic=0;enumerate=0;" parent="XRP2DXV7LQ1C8lFrC8NO-214" vertex="1">
          <mxGeometry y="30" width="160" height="30" as="geometry" />
        </mxCell>
        <mxCell id="XRP2DXV7LQ1C8lFrC8NO-216" value="PK,FK1" style="shape=partialRectangle;fontStyle=1;top=0;left=0;bottom=0;html=1;fillColor=none;align=left;verticalAlign=middle;spacingLeft=4;spacingRight=4;whiteSpace=wrap;overflow=hidden;rotatable=1;points=[];portConstraint=eastwest;part=1;editable=1;movable=1;resizable=1;deletable=1;locked=0;connectable=1;comic=0;enumerate=0;" parent="XRP2DXV7LQ1C8lFrC8NO-215" vertex="1" connectable="0">
          <mxGeometry width="60" height="30" as="geometry" />
        </mxCell>
        <mxCell id="XRP2DXV7LQ1C8lFrC8NO-229" value="order_id" style="shape=partialRectangle;top=0;left=0;right=0;bottom=0;html=1;align=left;verticalAlign=middle;fillColor=none;spacingLeft=60;spacingRight=4;whiteSpace=wrap;overflow=hidden;rotatable=1;points=[[0,0.5],[1,0.5]];portConstraint=eastwest;dropTarget=0;fontStyle=5;editable=1;movable=1;resizable=1;deletable=1;locked=0;connectable=1;comic=0;enumerate=0;" parent="XRP2DXV7LQ1C8lFrC8NO-214" vertex="1">
          <mxGeometry y="60" width="160" height="30" as="geometry" />
        </mxCell>
        <mxCell id="XRP2DXV7LQ1C8lFrC8NO-230" value="PK,FK2" style="shape=partialRectangle;fontStyle=1;top=0;left=0;bottom=0;html=1;fillColor=none;align=left;verticalAlign=middle;spacingLeft=4;spacingRight=4;whiteSpace=wrap;overflow=hidden;rotatable=1;points=[];portConstraint=eastwest;part=1;editable=1;movable=1;resizable=1;deletable=1;locked=0;connectable=1;comic=0;enumerate=0;" parent="XRP2DXV7LQ1C8lFrC8NO-229" vertex="1" connectable="0">
          <mxGeometry width="60" height="30" as="geometry" />
        </mxCell>
        <mxCell id="XRP2DXV7LQ1C8lFrC8NO-217" value="coupon_id" style="shape=partialRectangle;top=0;left=0;right=0;bottom=1;html=1;align=left;verticalAlign=middle;fillColor=none;spacingLeft=60;spacingRight=4;whiteSpace=wrap;overflow=hidden;rotatable=1;points=[[0,0.5],[1,0.5]];portConstraint=eastwest;dropTarget=0;fontStyle=5;editable=1;movable=1;resizable=1;deletable=1;locked=0;connectable=1;comic=0;enumerate=0;" parent="XRP2DXV7LQ1C8lFrC8NO-214" vertex="1">
          <mxGeometry y="90" width="160" height="30" as="geometry" />
        </mxCell>
        <mxCell id="XRP2DXV7LQ1C8lFrC8NO-218" value="PK,FK3" style="shape=partialRectangle;fontStyle=1;top=0;left=0;bottom=0;html=1;fillColor=none;align=left;verticalAlign=middle;spacingLeft=4;spacingRight=4;whiteSpace=wrap;overflow=hidden;rotatable=1;points=[];portConstraint=eastwest;part=1;editable=1;movable=1;resizable=1;deletable=1;locked=0;connectable=1;comic=0;enumerate=0;" parent="XRP2DXV7LQ1C8lFrC8NO-217" vertex="1" connectable="0">
          <mxGeometry width="60" height="30" as="geometry" />
        </mxCell>
        <mxCell id="XRP2DXV7LQ1C8lFrC8NO-238" value="pizza_topping" style="swimlane;html=1;fontStyle=0;childLayout=stackLayout;horizontal=1;startSize=30;fillColor=#a0a0a0;horizontalStack=0;resizeParent=1;resizeLast=0;collapsible=1;marginBottom=0;swimlaneFillColor=#ffffff;align=center;rounded=0;shadow=0;comic=0;labelBackgroundColor=none;strokeWidth=2;fontFamily=Verdana;fontSize=14;editable=1;movable=1;resizable=1;rotatable=1;deletable=1;locked=0;connectable=1;enumerate=0;strokeColor=#007FFF;fontColor=#000000;spacing=2;spacingBottom=5;" parent="1" vertex="1">
          <mxGeometry x="-600" y="880" width="160" height="120" as="geometry">
            <mxRectangle x="40" y="420" width="140" height="30" as="alternateBounds" />
          </mxGeometry>
        </mxCell>
        <mxCell id="XRP2DXV7LQ1C8lFrC8NO-239" value="pizza_id" style="shape=partialRectangle;top=0;left=0;right=0;bottom=0;html=1;align=left;verticalAlign=middle;fillColor=none;spacingLeft=60;spacingRight=4;whiteSpace=wrap;overflow=hidden;rotatable=1;points=[[0,0.5],[1,0.5]];portConstraint=eastwest;dropTarget=0;fontStyle=5;editable=1;movable=1;resizable=1;deletable=1;locked=0;connectable=1;comic=0;enumerate=0;" parent="XRP2DXV7LQ1C8lFrC8NO-238" vertex="1">
          <mxGeometry y="30" width="160" height="30" as="geometry" />
        </mxCell>
        <mxCell id="XRP2DXV7LQ1C8lFrC8NO-240" value="PK,FK1" style="shape=partialRectangle;fontStyle=1;top=0;left=0;bottom=0;html=1;fillColor=none;align=left;verticalAlign=middle;spacingLeft=4;spacingRight=4;whiteSpace=wrap;overflow=hidden;rotatable=1;points=[];portConstraint=eastwest;part=1;editable=1;movable=1;resizable=1;deletable=1;locked=0;connectable=1;comic=0;enumerate=0;" parent="XRP2DXV7LQ1C8lFrC8NO-239" vertex="1" connectable="0">
          <mxGeometry width="60" height="30" as="geometry" />
        </mxCell>
        <mxCell id="XRP2DXV7LQ1C8lFrC8NO-241" value="topping_id" style="shape=partialRectangle;top=0;left=0;right=0;bottom=1;html=1;align=left;verticalAlign=middle;fillColor=none;spacingLeft=60;spacingRight=4;whiteSpace=wrap;overflow=hidden;rotatable=1;points=[[0,0.5],[1,0.5]];portConstraint=eastwest;dropTarget=0;fontStyle=5;editable=1;movable=1;resizable=1;deletable=1;locked=0;connectable=1;comic=0;enumerate=0;" parent="XRP2DXV7LQ1C8lFrC8NO-238" vertex="1">
          <mxGeometry y="60" width="160" height="30" as="geometry" />
        </mxCell>
        <mxCell id="XRP2DXV7LQ1C8lFrC8NO-242" value="PK,FK2" style="shape=partialRectangle;fontStyle=1;top=0;left=0;bottom=0;html=1;fillColor=none;align=left;verticalAlign=middle;spacingLeft=4;spacingRight=4;whiteSpace=wrap;overflow=hidden;rotatable=1;points=[];portConstraint=eastwest;part=1;editable=1;movable=1;resizable=1;deletable=1;locked=0;connectable=1;comic=0;enumerate=0;" parent="XRP2DXV7LQ1C8lFrC8NO-241" vertex="1" connectable="0">
          <mxGeometry width="60" height="30" as="geometry" />
        </mxCell>
        <mxCell id="XRP2DXV7LQ1C8lFrC8NO-243" value="is_extra" style="shape=partialRectangle;top=0;left=0;right=0;bottom=0;html=1;align=left;verticalAlign=top;fillColor=none;spacingLeft=60;spacingRight=4;whiteSpace=wrap;overflow=hidden;rotatable=1;points=[[0,0.5],[1,0.5]];portConstraint=eastwest;dropTarget=0;editable=1;movable=1;resizable=1;deletable=1;locked=0;connectable=1;comic=0;enumerate=0;fontStyle=1" parent="XRP2DXV7LQ1C8lFrC8NO-238" vertex="1">
          <mxGeometry y="90" width="160" height="30" as="geometry" />
        </mxCell>
        <mxCell id="XRP2DXV7LQ1C8lFrC8NO-244" value="" style="shape=partialRectangle;top=0;left=0;bottom=0;html=1;fillColor=none;align=left;verticalAlign=top;spacingLeft=4;spacingRight=4;whiteSpace=wrap;overflow=hidden;rotatable=1;points=[];portConstraint=eastwest;part=1;editable=1;movable=1;resizable=1;deletable=1;locked=0;connectable=1;comic=0;enumerate=0;fontStyle=1" parent="XRP2DXV7LQ1C8lFrC8NO-243" vertex="1" connectable="0">
          <mxGeometry width="60" height="30" as="geometry" />
        </mxCell>
        <mxCell id="XRP2DXV7LQ1C8lFrC8NO-245" value="topping" style="swimlane;html=1;fontStyle=0;childLayout=stackLayout;horizontal=1;startSize=20;fillColor=#a0a0a0;horizontalStack=0;resizeParent=1;resizeLast=0;collapsible=1;marginBottom=0;swimlaneFillColor=#ffffff;align=center;rounded=0;shadow=0;comic=0;labelBackgroundColor=none;strokeWidth=2;fontFamily=Verdana;fontSize=14;editable=1;movable=1;resizable=1;rotatable=1;deletable=1;locked=0;connectable=1;enumerate=0;swimlaneLine=1;glass=0;gradientColor=none;container=1;strokeColor=#007FFF;fontColor=#000000;spacing=2;spacingBottom=5;" parent="1" vertex="1">
          <mxGeometry x="-600" y="1080" width="160" height="320" as="geometry" />
        </mxCell>
        <mxCell id="XRP2DXV7LQ1C8lFrC8NO-246" value="topping_id" style="shape=partialRectangle;top=0;left=0;right=0;bottom=1;html=1;align=left;verticalAlign=middle;fillColor=none;spacingLeft=34;spacingRight=4;whiteSpace=wrap;overflow=hidden;rotatable=1;points=[[0,0.5],[1,0.5]];portConstraint=eastwest;dropTarget=0;fontStyle=5;editable=1;movable=1;resizable=1;deletable=1;locked=0;connectable=1;comic=0;enumerate=0;" parent="XRP2DXV7LQ1C8lFrC8NO-245" vertex="1">
          <mxGeometry y="20" width="160" height="30" as="geometry" />
        </mxCell>
        <mxCell id="XRP2DXV7LQ1C8lFrC8NO-247" value="PK" style="shape=partialRectangle;top=0;left=0;bottom=0;html=1;fillColor=none;align=left;verticalAlign=middle;spacingLeft=4;spacingRight=4;whiteSpace=wrap;overflow=hidden;rotatable=1;points=[];portConstraint=eastwest;part=1;editable=1;movable=1;resizable=1;deletable=1;locked=0;connectable=1;comic=0;enumerate=0;fontStyle=1" parent="XRP2DXV7LQ1C8lFrC8NO-246" vertex="1" connectable="0">
          <mxGeometry width="30" height="30" as="geometry" />
        </mxCell>
        <mxCell id="XRP2DXV7LQ1C8lFrC8NO-248" value="name" style="shape=partialRectangle;top=0;left=0;right=0;bottom=0;html=1;align=left;verticalAlign=top;fillColor=none;spacingLeft=34;spacingRight=4;whiteSpace=wrap;overflow=hidden;rotatable=1;points=[[0,0.5],[1,0.5]];portConstraint=eastwest;dropTarget=0;editable=1;movable=1;resizable=1;deletable=1;locked=0;connectable=1;comic=0;enumerate=0;fontStyle=1" parent="XRP2DXV7LQ1C8lFrC8NO-245" vertex="1">
          <mxGeometry y="50" width="160" height="30" as="geometry" />
        </mxCell>
        <mxCell id="XRP2DXV7LQ1C8lFrC8NO-249" value="" style="shape=partialRectangle;top=0;left=0;bottom=0;html=1;fillColor=none;align=left;verticalAlign=top;spacingLeft=4;spacingRight=4;whiteSpace=wrap;overflow=hidden;rotatable=1;points=[];portConstraint=eastwest;part=1;editable=1;movable=1;resizable=1;deletable=1;locked=0;connectable=1;comic=0;enumerate=0;fontStyle=1" parent="XRP2DXV7LQ1C8lFrC8NO-248" vertex="1" connectable="0">
          <mxGeometry width="30" height="30" as="geometry" />
        </mxCell>
        <mxCell id="XRP2DXV7LQ1C8lFrC8NO-264" value="cost_per_unit" style="shape=partialRectangle;top=0;left=0;right=0;bottom=0;html=1;align=left;verticalAlign=top;fillColor=none;spacingLeft=34;spacingRight=4;whiteSpace=wrap;overflow=hidden;rotatable=1;points=[[0,0.5],[1,0.5]];portConstraint=eastwest;dropTarget=0;editable=1;movable=1;resizable=1;deletable=1;locked=0;connectable=1;comic=0;enumerate=0;fontStyle=1" parent="XRP2DXV7LQ1C8lFrC8NO-245" vertex="1">
          <mxGeometry y="80" width="160" height="30" as="geometry" />
        </mxCell>
        <mxCell id="XRP2DXV7LQ1C8lFrC8NO-265" value="" style="shape=partialRectangle;top=0;left=0;bottom=0;html=1;fillColor=none;align=left;verticalAlign=top;spacingLeft=4;spacingRight=4;whiteSpace=wrap;overflow=hidden;rotatable=1;points=[];portConstraint=eastwest;part=1;editable=1;movable=1;resizable=1;deletable=1;locked=0;connectable=1;comic=0;enumerate=0;fontStyle=1" parent="XRP2DXV7LQ1C8lFrC8NO-264" vertex="1" connectable="0">
          <mxGeometry width="30" height="30" as="geometry" />
        </mxCell>
        <mxCell id="XRP2DXV7LQ1C8lFrC8NO-266" value="price_per_unit" style="shape=partialRectangle;top=0;left=0;right=0;bottom=0;html=1;align=left;verticalAlign=top;fillColor=none;spacingLeft=34;spacingRight=4;whiteSpace=wrap;overflow=hidden;rotatable=1;points=[[0,0.5],[1,0.5]];portConstraint=eastwest;dropTarget=0;editable=1;movable=1;resizable=1;deletable=1;locked=0;connectable=1;comic=0;enumerate=0;fontStyle=1" parent="XRP2DXV7LQ1C8lFrC8NO-245" vertex="1">
          <mxGeometry y="110" width="160" height="30" as="geometry" />
        </mxCell>
        <mxCell id="XRP2DXV7LQ1C8lFrC8NO-267" value="" style="shape=partialRectangle;top=0;left=0;bottom=0;html=1;fillColor=none;align=left;verticalAlign=top;spacingLeft=4;spacingRight=4;whiteSpace=wrap;overflow=hidden;rotatable=1;points=[];portConstraint=eastwest;part=1;editable=1;movable=1;resizable=1;deletable=1;locked=0;connectable=1;comic=0;enumerate=0;fontStyle=1" parent="XRP2DXV7LQ1C8lFrC8NO-266" vertex="1" connectable="0">
          <mxGeometry width="30" height="30" as="geometry" />
        </mxCell>
        <mxCell id="XRP2DXV7LQ1C8lFrC8NO-250" value="units_in_personal" style="shape=partialRectangle;top=0;left=0;right=0;bottom=0;html=1;align=left;verticalAlign=top;fillColor=none;spacingLeft=34;spacingRight=4;whiteSpace=wrap;overflow=hidden;rotatable=1;points=[[0,0.5],[1,0.5]];portConstraint=eastwest;dropTarget=0;editable=1;movable=1;resizable=1;deletable=1;locked=0;connectable=1;comic=0;enumerate=0;fontStyle=1" parent="XRP2DXV7LQ1C8lFrC8NO-245" vertex="1">
          <mxGeometry y="140" width="160" height="30" as="geometry" />
        </mxCell>
        <mxCell id="XRP2DXV7LQ1C8lFrC8NO-251" value="" style="shape=partialRectangle;top=0;left=0;bottom=0;html=1;fillColor=none;align=left;verticalAlign=top;spacingLeft=4;spacingRight=4;whiteSpace=wrap;overflow=hidden;rotatable=1;points=[];portConstraint=eastwest;part=1;editable=1;movable=1;resizable=1;deletable=1;locked=0;connectable=1;comic=0;enumerate=0;fontStyle=1" parent="XRP2DXV7LQ1C8lFrC8NO-250" vertex="1" connectable="0">
          <mxGeometry width="30" height="30" as="geometry" />
        </mxCell>
        <mxCell id="XRP2DXV7LQ1C8lFrC8NO-256" value="units_in_medium" style="shape=partialRectangle;top=0;left=0;right=0;bottom=0;html=1;align=left;verticalAlign=top;fillColor=none;spacingLeft=34;spacingRight=4;whiteSpace=wrap;overflow=hidden;rotatable=1;points=[[0,0.5],[1,0.5]];portConstraint=eastwest;dropTarget=0;editable=1;movable=1;resizable=1;deletable=1;locked=0;connectable=1;comic=0;enumerate=0;fontStyle=1" parent="XRP2DXV7LQ1C8lFrC8NO-245" vertex="1">
          <mxGeometry y="170" width="160" height="30" as="geometry" />
        </mxCell>
        <mxCell id="XRP2DXV7LQ1C8lFrC8NO-257" value="" style="shape=partialRectangle;top=0;left=0;bottom=0;html=1;fillColor=none;align=left;verticalAlign=top;spacingLeft=4;spacingRight=4;whiteSpace=wrap;overflow=hidden;rotatable=1;points=[];portConstraint=eastwest;part=1;editable=1;movable=1;resizable=1;deletable=1;locked=0;connectable=1;comic=0;enumerate=0;fontStyle=1" parent="XRP2DXV7LQ1C8lFrC8NO-256" vertex="1" connectable="0">
          <mxGeometry width="30" height="30" as="geometry" />
        </mxCell>
        <mxCell id="XRP2DXV7LQ1C8lFrC8NO-258" value="units_in_large" style="shape=partialRectangle;top=0;left=0;right=0;bottom=0;html=1;align=left;verticalAlign=top;fillColor=none;spacingLeft=34;spacingRight=4;whiteSpace=wrap;overflow=hidden;rotatable=1;points=[[0,0.5],[1,0.5]];portConstraint=eastwest;dropTarget=0;editable=1;movable=1;resizable=1;deletable=1;locked=0;connectable=1;comic=0;enumerate=0;fontStyle=1" parent="XRP2DXV7LQ1C8lFrC8NO-245" vertex="1">
          <mxGeometry y="200" width="160" height="30" as="geometry" />
        </mxCell>
        <mxCell id="XRP2DXV7LQ1C8lFrC8NO-259" value="" style="shape=partialRectangle;top=0;left=0;bottom=0;html=1;fillColor=none;align=left;verticalAlign=top;spacingLeft=4;spacingRight=4;whiteSpace=wrap;overflow=hidden;rotatable=1;points=[];portConstraint=eastwest;part=1;editable=1;movable=1;resizable=1;deletable=1;locked=0;connectable=1;comic=0;enumerate=0;fontStyle=1" parent="XRP2DXV7LQ1C8lFrC8NO-258" vertex="1" connectable="0">
          <mxGeometry width="30" height="30" as="geometry" />
        </mxCell>
        <mxCell id="XRP2DXV7LQ1C8lFrC8NO-260" value="units_in_xlarge" style="shape=partialRectangle;top=0;left=0;right=0;bottom=0;html=1;align=left;verticalAlign=top;fillColor=none;spacingLeft=34;spacingRight=4;whiteSpace=wrap;overflow=hidden;rotatable=1;points=[[0,0.5],[1,0.5]];portConstraint=eastwest;dropTarget=0;editable=1;movable=1;resizable=1;deletable=1;locked=0;connectable=1;comic=0;enumerate=0;fontStyle=1" parent="XRP2DXV7LQ1C8lFrC8NO-245" vertex="1">
          <mxGeometry y="230" width="160" height="30" as="geometry" />
        </mxCell>
        <mxCell id="XRP2DXV7LQ1C8lFrC8NO-261" value="" style="shape=partialRectangle;top=0;left=0;bottom=0;html=1;fillColor=none;align=left;verticalAlign=top;spacingLeft=4;spacingRight=4;whiteSpace=wrap;overflow=hidden;rotatable=1;points=[];portConstraint=eastwest;part=1;editable=1;movable=1;resizable=1;deletable=1;locked=0;connectable=1;comic=0;enumerate=0;fontStyle=1" parent="XRP2DXV7LQ1C8lFrC8NO-260" vertex="1" connectable="0">
          <mxGeometry width="30" height="30" as="geometry" />
        </mxCell>
        <mxCell id="XRP2DXV7LQ1C8lFrC8NO-252" value="minimum_inventory" style="shape=partialRectangle;top=0;left=0;right=0;bottom=0;html=1;align=left;verticalAlign=top;fillColor=none;spacingLeft=34;spacingRight=4;whiteSpace=wrap;overflow=hidden;rotatable=1;points=[[0,0.5],[1,0.5]];portConstraint=eastwest;dropTarget=0;editable=1;movable=1;resizable=1;deletable=1;locked=0;connectable=1;comic=0;enumerate=0;fontStyle=1" parent="XRP2DXV7LQ1C8lFrC8NO-245" vertex="1">
          <mxGeometry y="260" width="160" height="30" as="geometry" />
        </mxCell>
        <mxCell id="XRP2DXV7LQ1C8lFrC8NO-253" value="" style="shape=partialRectangle;top=0;left=0;bottom=0;html=1;fillColor=none;align=left;verticalAlign=top;spacingLeft=4;spacingRight=4;whiteSpace=wrap;overflow=hidden;rotatable=1;points=[];portConstraint=eastwest;part=1;editable=1;movable=1;resizable=1;deletable=1;locked=0;connectable=1;comic=0;enumerate=0;fontStyle=1" parent="XRP2DXV7LQ1C8lFrC8NO-252" vertex="1" connectable="0">
          <mxGeometry width="30" height="30" as="geometry" />
        </mxCell>
        <mxCell id="XRP2DXV7LQ1C8lFrC8NO-262" value="current_inventory" style="shape=partialRectangle;top=0;left=0;right=0;bottom=0;html=1;align=left;verticalAlign=top;fillColor=none;spacingLeft=34;spacingRight=4;whiteSpace=wrap;overflow=hidden;rotatable=1;points=[[0,0.5],[1,0.5]];portConstraint=eastwest;dropTarget=0;editable=1;movable=1;resizable=1;deletable=1;locked=0;connectable=1;comic=0;enumerate=0;fontStyle=1" parent="XRP2DXV7LQ1C8lFrC8NO-245" vertex="1">
          <mxGeometry y="290" width="160" height="30" as="geometry" />
        </mxCell>
        <mxCell id="XRP2DXV7LQ1C8lFrC8NO-263" value="" style="shape=partialRectangle;top=0;left=0;bottom=0;html=1;fillColor=none;align=left;verticalAlign=top;spacingLeft=4;spacingRight=4;whiteSpace=wrap;overflow=hidden;rotatable=1;points=[];portConstraint=eastwest;part=1;editable=1;movable=1;resizable=1;deletable=1;locked=0;connectable=1;comic=0;enumerate=0;fontStyle=1" parent="XRP2DXV7LQ1C8lFrC8NO-262" vertex="1" connectable="0">
          <mxGeometry width="30" height="30" as="geometry" />
        </mxCell>
        <mxCell id="5XdCu-Sr5xr-vJQQU0_O-33" style="rounded=0;orthogonalLoop=1;jettySize=auto;html=1;startArrow=ERmandOne;startFill=0;endArrow=ERzeroToMany;endFill=0;editable=1;movable=1;resizable=1;rotatable=1;deletable=1;locked=0;connectable=1;comic=0;enumerate=0;edgeStyle=orthogonalEdgeStyle;fontStyle=1;strokeWidth=2;fontColor=#990000;strokeColor=#990000;" parent="1" source="XRP2DXV7LQ1C8lFrC8NO-268" target="XRP2DXV7LQ1C8lFrC8NO-130" edge="1">
          <mxGeometry relative="1" as="geometry">
            <mxPoint x="-1380" y="1080" as="targetPoint" />
            <Array as="points">
              <mxPoint x="-1400" y="1050" />
              <mxPoint x="-1400" y="1050" />
            </Array>
          </mxGeometry>
        </mxCell>
        <mxCell id="ft23h2SvaQS1Ued9Bh15-869" value="placed by" style="edgeLabel;html=1;align=center;verticalAlign=middle;resizable=0;points=[];labelBorderColor=none;fontStyle=1;fontColor=#990000;" vertex="1" connectable="0" parent="5XdCu-Sr5xr-vJQQU0_O-33">
          <mxGeometry x="-0.0112" y="2" relative="1" as="geometry">
            <mxPoint x="2" y="-1" as="offset" />
          </mxGeometry>
        </mxCell>
        <mxCell id="XRP2DXV7LQ1C8lFrC8NO-268" value="&lt;font style=&quot;font-weight: normal;&quot; color=&quot;#000000&quot;&gt;customer&lt;/font&gt;" style="swimlane;html=1;fontStyle=0;childLayout=stackLayout;horizontal=1;startSize=20;fillColor=#a0a0a0;horizontalStack=0;resizeParent=1;resizeLast=0;collapsible=1;marginBottom=0;swimlaneFillColor=#ffffff;align=center;rounded=0;shadow=0;comic=0;labelBackgroundColor=none;strokeWidth=2;fontFamily=Verdana;fontSize=14;editable=1;movable=1;resizable=1;rotatable=1;deletable=1;locked=0;connectable=1;enumerate=0;strokeColor=#007FFF;fontColor=#000000;verticalAlign=middle;spacing=2;spacingBottom=5;" parent="1" vertex="1">
          <mxGeometry x="-1480" y="1080" width="160" height="120" as="geometry" />
        </mxCell>
        <mxCell id="XRP2DXV7LQ1C8lFrC8NO-269" value="customer_id" style="shape=partialRectangle;top=0;left=0;right=0;bottom=1;html=1;align=left;verticalAlign=middle;fillColor=none;spacingLeft=34;spacingRight=4;whiteSpace=wrap;overflow=hidden;rotatable=1;points=[[0,0.5],[1,0.5]];portConstraint=eastwest;dropTarget=0;fontStyle=5;editable=1;movable=1;resizable=1;deletable=1;locked=0;connectable=1;comic=0;enumerate=0;" parent="XRP2DXV7LQ1C8lFrC8NO-268" vertex="1">
          <mxGeometry y="20" width="160" height="20" as="geometry" />
        </mxCell>
        <mxCell id="XRP2DXV7LQ1C8lFrC8NO-270" value="PK" style="shape=partialRectangle;top=0;left=0;bottom=0;html=1;fillColor=none;align=left;verticalAlign=middle;spacingLeft=4;spacingRight=4;whiteSpace=wrap;overflow=hidden;rotatable=1;points=[];portConstraint=eastwest;part=1;editable=1;movable=1;resizable=1;deletable=1;locked=0;connectable=1;comic=0;enumerate=0;fontStyle=1" parent="XRP2DXV7LQ1C8lFrC8NO-269" vertex="1" connectable="0">
          <mxGeometry width="30" height="20" as="geometry" />
        </mxCell>
        <mxCell id="XRP2DXV7LQ1C8lFrC8NO-271" value="first_name" style="shape=partialRectangle;top=0;left=0;right=0;bottom=0;html=1;align=left;verticalAlign=middle;fillColor=none;spacingLeft=34;spacingRight=4;whiteSpace=wrap;overflow=hidden;rotatable=1;points=[[0,0.5],[1,0.5]];portConstraint=eastwest;dropTarget=0;editable=1;movable=1;resizable=1;deletable=1;locked=0;connectable=1;comic=0;enumerate=0;fontStyle=1" parent="XRP2DXV7LQ1C8lFrC8NO-268" vertex="1">
          <mxGeometry y="40" width="160" height="20" as="geometry" />
        </mxCell>
        <mxCell id="XRP2DXV7LQ1C8lFrC8NO-272" value="" style="shape=partialRectangle;top=0;left=0;bottom=0;html=1;fillColor=none;align=left;verticalAlign=middle;spacingLeft=4;spacingRight=4;whiteSpace=wrap;overflow=hidden;rotatable=1;points=[];portConstraint=eastwest;part=1;editable=1;movable=1;resizable=1;deletable=1;locked=0;connectable=1;comic=0;enumerate=0;fontStyle=1" parent="XRP2DXV7LQ1C8lFrC8NO-271" vertex="1" connectable="0">
          <mxGeometry width="30" height="20" as="geometry" />
        </mxCell>
        <mxCell id="XRP2DXV7LQ1C8lFrC8NO-273" value="last_name" style="shape=partialRectangle;top=0;left=0;right=0;bottom=0;html=1;align=left;verticalAlign=middle;fillColor=none;spacingLeft=34;spacingRight=4;whiteSpace=wrap;overflow=hidden;rotatable=1;points=[[0,0.5],[1,0.5]];portConstraint=eastwest;dropTarget=0;editable=1;movable=1;resizable=1;deletable=1;locked=0;connectable=1;comic=0;enumerate=0;fontStyle=1" parent="XRP2DXV7LQ1C8lFrC8NO-268" vertex="1">
          <mxGeometry y="60" width="160" height="20" as="geometry" />
        </mxCell>
        <mxCell id="XRP2DXV7LQ1C8lFrC8NO-274" value="" style="shape=partialRectangle;top=0;left=0;bottom=0;html=1;fillColor=none;align=left;verticalAlign=middle;spacingLeft=4;spacingRight=4;whiteSpace=wrap;overflow=hidden;rotatable=1;points=[];portConstraint=eastwest;part=1;editable=1;movable=1;resizable=1;deletable=1;locked=0;connectable=1;comic=0;enumerate=0;fontStyle=1" parent="XRP2DXV7LQ1C8lFrC8NO-273" vertex="1" connectable="0">
          <mxGeometry width="30" height="20" as="geometry" />
        </mxCell>
        <mxCell id="XRP2DXV7LQ1C8lFrC8NO-275" value="phone_number" style="shape=partialRectangle;top=0;left=0;right=0;bottom=0;html=1;align=left;verticalAlign=middle;fillColor=none;spacingLeft=34;spacingRight=4;whiteSpace=wrap;overflow=hidden;rotatable=1;points=[[0,0.5],[1,0.5]];portConstraint=eastwest;dropTarget=0;editable=1;movable=1;resizable=1;deletable=1;locked=0;connectable=1;comic=0;enumerate=0;fontStyle=1" parent="XRP2DXV7LQ1C8lFrC8NO-268" vertex="1">
          <mxGeometry y="80" width="160" height="20" as="geometry" />
        </mxCell>
        <mxCell id="XRP2DXV7LQ1C8lFrC8NO-276" value="" style="shape=partialRectangle;top=0;left=0;bottom=0;html=1;fillColor=none;align=left;verticalAlign=middle;spacingLeft=4;spacingRight=4;whiteSpace=wrap;overflow=hidden;rotatable=1;points=[];portConstraint=eastwest;part=1;editable=1;movable=1;resizable=1;deletable=1;locked=0;connectable=1;comic=0;enumerate=0;fontStyle=1" parent="XRP2DXV7LQ1C8lFrC8NO-275" vertex="1" connectable="0">
          <mxGeometry width="30" height="20" as="geometry" />
        </mxCell>
        <mxCell id="5XdCu-Sr5xr-vJQQU0_O-34" value="has_address" style="shape=partialRectangle;top=0;left=0;right=0;bottom=0;html=1;align=left;verticalAlign=middle;fillColor=none;spacingLeft=34;spacingRight=4;whiteSpace=wrap;overflow=hidden;rotatable=1;points=[[0,0.5],[1,0.5]];portConstraint=eastwest;dropTarget=0;editable=1;movable=1;resizable=1;deletable=1;locked=0;connectable=1;comic=0;enumerate=0;fontStyle=1" parent="XRP2DXV7LQ1C8lFrC8NO-268" vertex="1">
          <mxGeometry y="100" width="160" height="20" as="geometry" />
        </mxCell>
        <mxCell id="5XdCu-Sr5xr-vJQQU0_O-35" value="" style="shape=partialRectangle;top=0;left=0;bottom=0;html=1;fillColor=none;align=left;verticalAlign=middle;spacingLeft=4;spacingRight=4;whiteSpace=wrap;overflow=hidden;rotatable=1;points=[];portConstraint=eastwest;part=1;editable=1;movable=1;resizable=1;deletable=1;locked=0;connectable=1;comic=0;enumerate=0;fontStyle=1" parent="5XdCu-Sr5xr-vJQQU0_O-34" vertex="1" connectable="0">
          <mxGeometry width="30" height="20" as="geometry" />
        </mxCell>
        <mxCell id="5XdCu-Sr5xr-vJQQU0_O-40" style="rounded=0;orthogonalLoop=1;jettySize=auto;html=1;endArrow=none;endFill=0;entryX=0.5;entryY=1;entryDx=0;entryDy=0;editable=1;movable=1;resizable=1;rotatable=1;deletable=1;locked=0;connectable=1;comic=0;enumerate=0;exitX=0.5;exitY=0;exitDx=0;exitDy=0;edgeStyle=orthogonalEdgeStyle;fontStyle=1" parent="1" source="ft23h2SvaQS1Ued9Bh15-1" target="5XdCu-Sr5xr-vJQQU0_O-36" edge="1">
          <mxGeometry relative="1" as="geometry">
            <mxPoint x="230" y="1500" as="targetPoint" />
            <mxPoint x="346.17647058823536" y="1530" as="sourcePoint" />
            <Array as="points">
              <mxPoint x="-1400" y="1290" />
              <mxPoint x="-1400" y="1290" />
            </Array>
          </mxGeometry>
        </mxCell>
        <mxCell id="5XdCu-Sr5xr-vJQQU0_O-1" value="" style="fontSize=11;html=1;endArrow=ERmandOne;startArrow=ERzeroToMany;rounded=0;endFill=0;startFill=0;editable=1;movable=1;resizable=1;rotatable=1;deletable=1;locked=0;connectable=1;comic=0;enumerate=0;fontStyle=1;strokeColor=#990000;fontColor=#990000;strokeWidth=2;" parent="1" source="XRP2DXV7LQ1C8lFrC8NO-238" target="XRP2DXV7LQ1C8lFrC8NO-245" edge="1">
          <mxGeometry width="100" height="100" relative="1" as="geometry">
            <mxPoint x="-350" y="430" as="sourcePoint" />
            <mxPoint x="-380" y="400" as="targetPoint" />
          </mxGeometry>
        </mxCell>
        <mxCell id="5XdCu-Sr5xr-vJQQU0_O-10" value="of" style="edgeLabel;html=1;align=center;verticalAlign=middle;resizable=1;points=[];editable=1;movable=1;rotatable=1;deletable=1;locked=0;connectable=1;comic=0;enumerate=0;fontStyle=1;fontColor=#990000;" parent="5XdCu-Sr5xr-vJQQU0_O-1" vertex="1" connectable="0">
          <mxGeometry relative="1" as="geometry">
            <mxPoint as="offset" />
          </mxGeometry>
        </mxCell>
        <mxCell id="5XdCu-Sr5xr-vJQQU0_O-4" value="" style="fontSize=11;html=1;endArrow=ERoneToMany;startArrow=ERmandOne;rounded=0;endFill=0;elbow=vertical;editable=1;movable=1;resizable=1;rotatable=1;deletable=1;locked=0;connectable=1;comic=0;enumerate=0;fontStyle=1;strokeColor=#990000;fontColor=#990000;startFill=0;strokeWidth=2;" parent="1" source="ft23h2SvaQS1Ued9Bh15-895" target="XRP2DXV7LQ1C8lFrC8NO-238" edge="1">
          <mxGeometry width="100" height="100" relative="1" as="geometry">
            <mxPoint x="-495" y="760" as="sourcePoint" />
            <mxPoint x="-510" y="505" as="targetPoint" />
          </mxGeometry>
        </mxCell>
        <mxCell id="5XdCu-Sr5xr-vJQQU0_O-9" value="topped by" style="edgeLabel;html=1;align=center;verticalAlign=middle;resizable=1;points=[];editable=1;movable=1;rotatable=1;deletable=1;locked=0;connectable=1;comic=0;enumerate=0;fontStyle=1;fontColor=#990000;" parent="5XdCu-Sr5xr-vJQQU0_O-4" vertex="1" connectable="0">
          <mxGeometry relative="1" as="geometry">
            <mxPoint as="offset" />
          </mxGeometry>
        </mxCell>
        <mxCell id="5XdCu-Sr5xr-vJQQU0_O-5" value="" style="fontSize=11;html=1;endArrow=ERmandOne;startArrow=ERzeroToMany;rounded=0;endFill=0;startFill=0;editable=1;movable=1;resizable=1;rotatable=1;deletable=1;locked=0;connectable=1;comic=0;enumerate=0;fontStyle=1;edgeStyle=orthogonalEdgeStyle;strokeColor=#990000;fontColor=#990000;strokeWidth=2;" parent="1" source="XRP2DXV7LQ1C8lFrC8NO-23" target="ft23h2SvaQS1Ued9Bh15-895" edge="1">
          <mxGeometry width="100" height="100" relative="1" as="geometry">
            <mxPoint x="10" y="708" as="sourcePoint" />
            <mxPoint x="-560" y="730.0256410256411" as="targetPoint" />
            <Array as="points">
              <mxPoint x="-680" y="700" />
              <mxPoint x="-680" y="700" />
            </Array>
          </mxGeometry>
        </mxCell>
        <mxCell id="5XdCu-Sr5xr-vJQQU0_O-12" value="of&lt;br&gt;" style="edgeLabel;html=1;align=center;verticalAlign=middle;resizable=1;points=[];editable=1;movable=1;rotatable=1;deletable=1;locked=0;connectable=1;comic=0;enumerate=0;fontStyle=1;fontColor=#990000;" parent="5XdCu-Sr5xr-vJQQU0_O-5" vertex="1" connectable="0">
          <mxGeometry relative="1" as="geometry">
            <mxPoint as="offset" />
          </mxGeometry>
        </mxCell>
        <mxCell id="5XdCu-Sr5xr-vJQQU0_O-8" style="rounded=0;orthogonalLoop=1;jettySize=auto;html=1;endArrow=ERzeroToMany;endFill=0;startArrow=ERmandOne;startFill=0;editable=1;movable=1;resizable=1;rotatable=1;deletable=1;locked=0;connectable=1;comic=0;enumerate=0;fontStyle=1;edgeStyle=orthogonalEdgeStyle;strokeColor=#990000;fontColor=#990000;strokeWidth=2;" parent="1" source="XRP2DXV7LQ1C8lFrC8NO-154" target="XRP2DXV7LQ1C8lFrC8NO-214" edge="1">
          <mxGeometry relative="1" as="geometry">
            <Array as="points">
              <mxPoint x="-820" y="1040" />
              <mxPoint x="-820" y="1040" />
            </Array>
          </mxGeometry>
        </mxCell>
        <mxCell id="5XdCu-Sr5xr-vJQQU0_O-27" value="using" style="edgeLabel;html=1;align=center;verticalAlign=middle;resizable=1;points=[];editable=1;movable=1;rotatable=1;deletable=1;locked=0;connectable=1;comic=0;enumerate=0;fontStyle=1;fontColor=#990000;" parent="5XdCu-Sr5xr-vJQQU0_O-8" vertex="1" connectable="0">
          <mxGeometry relative="1" as="geometry">
            <mxPoint y="2" as="offset" />
          </mxGeometry>
        </mxCell>
        <mxCell id="XRP2DXV7LQ1C8lFrC8NO-191" value="percent_amount" style="swimlane;html=1;fontStyle=0;childLayout=stackLayout;horizontal=1;startSize=30;fillColor=#a0a0a0;horizontalStack=0;resizeParent=1;resizeLast=0;collapsible=1;marginBottom=0;swimlaneFillColor=#ffffff;align=center;rounded=0;shadow=0;comic=0;labelBackgroundColor=none;strokeWidth=2;fontFamily=Verdana;fontSize=14;editable=1;movable=1;resizable=1;rotatable=1;deletable=1;locked=0;connectable=1;enumerate=0;strokeColor=#007FFF;fontColor=#000000;spacing=2;spacingBottom=5;" parent="1" vertex="1">
          <mxGeometry x="-860" y="1310" width="140" height="90" as="geometry" />
        </mxCell>
        <mxCell id="XRP2DXV7LQ1C8lFrC8NO-192" value="coupon_id" style="shape=partialRectangle;top=0;left=0;right=0;bottom=1;html=1;align=left;verticalAlign=middle;fillColor=none;spacingLeft=60;spacingRight=4;whiteSpace=wrap;overflow=hidden;rotatable=1;points=[[0,0.5],[1,0.5]];portConstraint=eastwest;dropTarget=0;fontStyle=5;editable=1;movable=1;resizable=1;deletable=1;locked=0;connectable=1;comic=0;enumerate=0;" parent="XRP2DXV7LQ1C8lFrC8NO-191" vertex="1">
          <mxGeometry y="30" width="140" height="30" as="geometry" />
        </mxCell>
        <mxCell id="XRP2DXV7LQ1C8lFrC8NO-193" value="PK,FK1" style="shape=partialRectangle;fontStyle=1;top=0;left=0;bottom=0;html=1;fillColor=none;align=left;verticalAlign=middle;spacingLeft=4;spacingRight=4;whiteSpace=wrap;overflow=hidden;rotatable=1;points=[];portConstraint=eastwest;part=1;editable=1;movable=1;resizable=1;deletable=1;locked=0;connectable=1;comic=0;enumerate=0;" parent="XRP2DXV7LQ1C8lFrC8NO-192" vertex="1" connectable="0">
          <mxGeometry width="60" height="30" as="geometry" />
        </mxCell>
        <mxCell id="XRP2DXV7LQ1C8lFrC8NO-194" value="percent_off" style="shape=partialRectangle;top=0;left=0;right=0;bottom=0;html=1;align=left;verticalAlign=top;fillColor=none;spacingLeft=60;spacingRight=4;whiteSpace=wrap;overflow=hidden;rotatable=1;points=[[0,0.5],[1,0.5]];portConstraint=eastwest;dropTarget=0;editable=1;movable=1;resizable=1;deletable=1;locked=0;connectable=1;comic=0;enumerate=0;fontStyle=1" parent="XRP2DXV7LQ1C8lFrC8NO-191" vertex="1">
          <mxGeometry y="60" width="140" height="30" as="geometry" />
        </mxCell>
        <mxCell id="XRP2DXV7LQ1C8lFrC8NO-195" value="" style="shape=partialRectangle;top=0;left=0;bottom=0;html=1;fillColor=none;align=left;verticalAlign=top;spacingLeft=4;spacingRight=4;whiteSpace=wrap;overflow=hidden;rotatable=1;points=[];portConstraint=eastwest;part=1;editable=1;movable=1;resizable=1;deletable=1;locked=0;connectable=1;comic=0;enumerate=0;fontStyle=1" parent="XRP2DXV7LQ1C8lFrC8NO-194" vertex="1" connectable="0">
          <mxGeometry width="60" height="30" as="geometry" />
        </mxCell>
        <mxCell id="XRP2DXV7LQ1C8lFrC8NO-154" value="coupon" style="swimlane;html=1;fontStyle=0;childLayout=stackLayout;horizontal=1;startSize=20;fillColor=#a0a0a0;horizontalStack=0;resizeParent=1;resizeLast=0;collapsible=1;marginBottom=0;swimlaneFillColor=#ffffff;align=center;rounded=0;shadow=0;comic=0;labelBackgroundColor=none;strokeWidth=2;fontFamily=Verdana;fontSize=14;editable=1;movable=1;resizable=1;rotatable=1;deletable=1;locked=0;connectable=1;enumerate=0;strokeColor=#007FFF;fontColor=#000000;spacing=2;spacingBottom=5;" parent="1" vertex="1">
          <mxGeometry x="-1150" y="1080" width="420" height="100" as="geometry" />
        </mxCell>
        <mxCell id="XRP2DXV7LQ1C8lFrC8NO-157" value="coupon_id" style="shape=partialRectangle;top=0;left=0;right=0;bottom=1;html=1;align=left;verticalAlign=middle;fillColor=none;spacingLeft=60;spacingRight=4;whiteSpace=wrap;overflow=hidden;rotatable=1;points=[[0,0.5],[1,0.5]];portConstraint=eastwest;dropTarget=0;fontStyle=5;editable=1;movable=1;resizable=1;deletable=1;locked=0;connectable=1;comic=0;enumerate=0;" parent="XRP2DXV7LQ1C8lFrC8NO-154" vertex="1">
          <mxGeometry y="20" width="420" height="20" as="geometry" />
        </mxCell>
        <mxCell id="XRP2DXV7LQ1C8lFrC8NO-158" value="PK" style="shape=partialRectangle;fontStyle=1;top=0;left=0;bottom=0;html=1;fillColor=none;align=left;verticalAlign=middle;spacingLeft=4;spacingRight=4;whiteSpace=wrap;overflow=hidden;rotatable=1;points=[];portConstraint=eastwest;part=1;editable=1;movable=1;resizable=1;deletable=1;locked=0;connectable=1;comic=0;enumerate=0;" parent="XRP2DXV7LQ1C8lFrC8NO-157" vertex="1" connectable="0">
          <mxGeometry width="60" height="20" as="geometry" />
        </mxCell>
        <mxCell id="XRP2DXV7LQ1C8lFrC8NO-159" value="name" style="shape=partialRectangle;top=0;left=0;right=0;bottom=0;html=1;align=left;verticalAlign=middle;fillColor=none;spacingLeft=60;spacingRight=4;whiteSpace=wrap;overflow=hidden;rotatable=1;points=[[0,0.5],[1,0.5]];portConstraint=eastwest;dropTarget=0;editable=1;movable=1;resizable=1;deletable=1;locked=0;connectable=1;comic=0;enumerate=0;fontStyle=1" parent="XRP2DXV7LQ1C8lFrC8NO-154" vertex="1">
          <mxGeometry y="40" width="420" height="20" as="geometry" />
        </mxCell>
        <mxCell id="XRP2DXV7LQ1C8lFrC8NO-160" value="" style="shape=partialRectangle;top=0;left=0;bottom=0;html=1;fillColor=none;align=left;verticalAlign=top;spacingLeft=4;spacingRight=4;whiteSpace=wrap;overflow=hidden;rotatable=1;points=[];portConstraint=eastwest;part=1;editable=1;movable=1;resizable=1;deletable=1;locked=0;connectable=1;comic=0;enumerate=0;fontStyle=1" parent="XRP2DXV7LQ1C8lFrC8NO-159" vertex="1" connectable="0">
          <mxGeometry width="60" height="20" as="geometry" />
        </mxCell>
        <mxCell id="XRP2DXV7LQ1C8lFrC8NO-161" value="eligibility" style="shape=partialRectangle;top=0;left=0;right=0;bottom=0;html=1;align=left;verticalAlign=middle;fillColor=none;spacingLeft=60;spacingRight=4;whiteSpace=wrap;overflow=hidden;rotatable=1;points=[[0,0.5],[1,0.5]];portConstraint=eastwest;dropTarget=0;editable=1;movable=1;resizable=1;deletable=1;locked=0;connectable=1;comic=0;enumerate=0;fontStyle=1;recursiveResize=1;expand=1;container=0;collapsible=0;perimeter=rectanglePerimeter;" parent="XRP2DXV7LQ1C8lFrC8NO-154" vertex="1">
          <mxGeometry y="60" width="420" height="20" as="geometry" />
        </mxCell>
        <mxCell id="XRP2DXV7LQ1C8lFrC8NO-162" value="" style="shape=partialRectangle;top=0;left=0;bottom=0;html=1;fillColor=none;align=left;verticalAlign=top;spacingLeft=4;spacingRight=4;whiteSpace=wrap;overflow=hidden;rotatable=1;points=[];portConstraint=eastwest;part=1;editable=1;movable=1;resizable=1;deletable=1;locked=0;connectable=1;comic=0;enumerate=0;fontStyle=1" parent="XRP2DXV7LQ1C8lFrC8NO-161" vertex="1" connectable="0">
          <mxGeometry width="60" height="20" as="geometry" />
        </mxCell>
        <mxCell id="XRP2DXV7LQ1C8lFrC8NO-163" value="discount_type" style="shape=partialRectangle;top=0;left=0;right=0;bottom=0;html=1;align=left;verticalAlign=middle;fillColor=none;spacingLeft=60;spacingRight=4;whiteSpace=wrap;overflow=hidden;rotatable=1;points=[[0,0.5],[1,0.5]];portConstraint=eastwest;dropTarget=0;editable=1;movable=1;resizable=1;deletable=1;locked=0;connectable=1;comic=0;enumerate=0;fontStyle=1" parent="XRP2DXV7LQ1C8lFrC8NO-154" vertex="1">
          <mxGeometry y="80" width="420" height="20" as="geometry" />
        </mxCell>
        <mxCell id="XRP2DXV7LQ1C8lFrC8NO-164" value="" style="shape=partialRectangle;top=0;left=0;bottom=0;html=1;fillColor=none;align=left;verticalAlign=top;spacingLeft=4;spacingRight=4;whiteSpace=wrap;overflow=hidden;rotatable=1;points=[];portConstraint=eastwest;part=1;editable=1;movable=1;resizable=1;deletable=1;locked=0;connectable=1;comic=0;enumerate=0;fontStyle=1" parent="XRP2DXV7LQ1C8lFrC8NO-163" vertex="1" connectable="0">
          <mxGeometry width="60" height="20" as="geometry" />
        </mxCell>
        <mxCell id="XRP2DXV7LQ1C8lFrC8NO-190" style="rounded=0;orthogonalLoop=1;jettySize=auto;html=1;endArrow=none;endFill=0;editable=1;movable=1;resizable=1;rotatable=1;deletable=1;locked=0;connectable=1;comic=0;enumerate=0;fontStyle=1;edgeStyle=orthogonalEdgeStyle;entryX=0.489;entryY=1.045;entryDx=0;entryDy=0;entryPerimeter=0;" parent="1" source="XRP2DXV7LQ1C8lFrC8NO-191" target="ft23h2SvaQS1Ued9Bh15-882" edge="1">
          <mxGeometry relative="1" as="geometry">
            <mxPoint x="-920" y="1330" as="targetPoint" />
            <mxPoint x="-215" y="1643" as="sourcePoint" />
            <Array as="points">
              <mxPoint x="-790" y="1290" />
              <mxPoint x="-940" y="1290" />
            </Array>
          </mxGeometry>
        </mxCell>
        <mxCell id="XRP2DXV7LQ1C8lFrC8NO-196" style="rounded=0;orthogonalLoop=1;jettySize=auto;html=1;endArrow=none;endFill=0;editable=1;movable=1;resizable=1;rotatable=1;deletable=1;locked=0;connectable=1;comic=0;enumerate=0;fontStyle=1;edgeStyle=orthogonalEdgeStyle;entryX=0.5;entryY=1;entryDx=0;entryDy=0;" parent="1" source="5XdCu-Sr5xr-vJQQU0_O-58" target="ft23h2SvaQS1Ued9Bh15-882" edge="1">
          <mxGeometry relative="1" as="geometry">
            <mxPoint x="-940" y="1350" as="targetPoint" />
            <mxPoint x="-400" y="1620" as="sourcePoint" />
            <Array as="points">
              <mxPoint x="-1070" y="1290" />
              <mxPoint x="-940" y="1290" />
            </Array>
          </mxGeometry>
        </mxCell>
        <mxCell id="5XdCu-Sr5xr-vJQQU0_O-14" value="order_discount" style="swimlane;html=1;fontStyle=0;childLayout=stackLayout;horizontal=1;startSize=20;fillColor=#a0a0a0;horizontalStack=0;resizeParent=1;resizeLast=0;collapsible=1;marginBottom=0;swimlaneFillColor=#ffffff;align=center;rounded=0;shadow=0;comic=0;labelBackgroundColor=none;strokeWidth=2;fontFamily=Verdana;fontSize=14;editable=1;movable=1;resizable=1;rotatable=1;deletable=1;locked=0;connectable=1;enumerate=0;strokeColor=#007FFF;fontColor=#000000;spacing=2;spacingBottom=5;" parent="1" vertex="1">
          <mxGeometry x="-1140" y="920" width="140" height="80" as="geometry" />
        </mxCell>
        <mxCell id="5XdCu-Sr5xr-vJQQU0_O-17" value="order_id" style="shape=partialRectangle;top=0;left=0;right=0;bottom=0;html=1;align=left;verticalAlign=middle;fillColor=none;spacingLeft=60;spacingRight=4;whiteSpace=wrap;overflow=hidden;rotatable=1;points=[[0,0.5],[1,0.5]];portConstraint=eastwest;dropTarget=0;fontStyle=5;editable=1;movable=1;resizable=1;deletable=1;locked=0;connectable=1;comic=0;enumerate=0;" parent="5XdCu-Sr5xr-vJQQU0_O-14" vertex="1">
          <mxGeometry y="20" width="140" height="30" as="geometry" />
        </mxCell>
        <mxCell id="5XdCu-Sr5xr-vJQQU0_O-18" value="PK,FK1" style="shape=partialRectangle;fontStyle=1;top=0;left=0;bottom=0;html=1;fillColor=none;align=left;verticalAlign=middle;spacingLeft=4;spacingRight=4;whiteSpace=wrap;overflow=hidden;rotatable=1;points=[];portConstraint=eastwest;part=1;editable=1;movable=1;resizable=1;deletable=1;locked=0;connectable=1;comic=0;enumerate=0;" parent="5XdCu-Sr5xr-vJQQU0_O-17" vertex="1" connectable="0">
          <mxGeometry width="60" height="30" as="geometry" />
        </mxCell>
        <mxCell id="5XdCu-Sr5xr-vJQQU0_O-19" value="coupon_id" style="shape=partialRectangle;top=0;left=0;right=0;bottom=1;html=1;align=left;verticalAlign=middle;fillColor=none;spacingLeft=60;spacingRight=4;whiteSpace=wrap;overflow=hidden;rotatable=1;points=[[0,0.5],[1,0.5]];portConstraint=eastwest;dropTarget=0;fontStyle=5;editable=1;movable=1;resizable=1;deletable=1;locked=0;connectable=1;comic=0;enumerate=0;" parent="5XdCu-Sr5xr-vJQQU0_O-14" vertex="1">
          <mxGeometry y="50" width="140" height="30" as="geometry" />
        </mxCell>
        <mxCell id="5XdCu-Sr5xr-vJQQU0_O-20" value="PK,FK2" style="shape=partialRectangle;fontStyle=1;top=0;left=0;bottom=0;html=1;fillColor=none;align=left;verticalAlign=middle;spacingLeft=4;spacingRight=4;whiteSpace=wrap;overflow=hidden;rotatable=1;points=[];portConstraint=eastwest;part=1;editable=1;movable=1;resizable=1;deletable=1;locked=0;connectable=1;comic=0;enumerate=0;" parent="5XdCu-Sr5xr-vJQQU0_O-19" vertex="1" connectable="0">
          <mxGeometry width="60" height="30" as="geometry" />
        </mxCell>
        <mxCell id="5XdCu-Sr5xr-vJQQU0_O-21" style="rounded=0;orthogonalLoop=1;jettySize=auto;html=1;endArrow=ERzeroToMany;endFill=0;startArrow=ERmandOne;startFill=0;editable=1;movable=1;resizable=1;rotatable=1;deletable=1;locked=0;connectable=1;comic=0;enumerate=0;fontStyle=1;edgeStyle=orthogonalEdgeStyle;strokeColor=#990000;fontColor=#990000;strokeWidth=2;" parent="1" source="XRP2DXV7LQ1C8lFrC8NO-154" target="5XdCu-Sr5xr-vJQQU0_O-14" edge="1">
          <mxGeometry relative="1" as="geometry">
            <mxPoint x="-227" y="1332" as="sourcePoint" />
            <mxPoint x="-380" y="1256" as="targetPoint" />
            <Array as="points">
              <mxPoint x="-1080" y="1040" />
              <mxPoint x="-1080" y="1040" />
            </Array>
          </mxGeometry>
        </mxCell>
        <mxCell id="5XdCu-Sr5xr-vJQQU0_O-28" value="using" style="edgeLabel;html=1;align=center;verticalAlign=middle;resizable=1;points=[];editable=1;movable=1;rotatable=1;deletable=1;locked=0;connectable=1;comic=0;enumerate=0;fontStyle=1;fontColor=#990000;" parent="5XdCu-Sr5xr-vJQQU0_O-21" vertex="1" connectable="0">
          <mxGeometry relative="1" as="geometry">
            <mxPoint as="offset" />
          </mxGeometry>
        </mxCell>
        <mxCell id="5XdCu-Sr5xr-vJQQU0_O-25" style="rounded=0;orthogonalLoop=1;jettySize=auto;html=1;endArrow=ERzeroToMany;endFill=0;startArrow=ERmandOne;startFill=0;editable=1;movable=1;resizable=1;rotatable=1;deletable=1;locked=0;connectable=1;comic=0;enumerate=0;fontStyle=1;edgeStyle=orthogonalEdgeStyle;strokeColor=#990000;fontColor=#990000;strokeWidth=2;" parent="1" source="XRP2DXV7LQ1C8lFrC8NO-67" target="5XdCu-Sr5xr-vJQQU0_O-14" edge="1">
          <mxGeometry relative="1" as="geometry">
            <mxPoint x="-385" y="1034" as="sourcePoint" />
            <mxPoint x="-380" y="1140" as="targetPoint" />
            <Array as="points">
              <mxPoint x="-1090" y="840" />
              <mxPoint x="-1090" y="840" />
            </Array>
          </mxGeometry>
        </mxCell>
        <mxCell id="5XdCu-Sr5xr-vJQQU0_O-26" value="has" style="edgeLabel;html=1;align=center;verticalAlign=middle;resizable=1;points=[];editable=1;movable=1;rotatable=1;deletable=1;locked=0;connectable=1;comic=0;enumerate=0;fontStyle=1;fontColor=#990000;" parent="5XdCu-Sr5xr-vJQQU0_O-25" vertex="1" connectable="0">
          <mxGeometry relative="1" as="geometry">
            <mxPoint as="offset" />
          </mxGeometry>
        </mxCell>
        <mxCell id="5XdCu-Sr5xr-vJQQU0_O-41" style="rounded=0;orthogonalLoop=1;jettySize=auto;html=1;endArrow=none;endFill=0;exitX=0.5;exitY=0;exitDx=0;exitDy=0;editable=1;movable=1;resizable=1;rotatable=1;deletable=1;locked=0;connectable=1;comic=0;enumerate=0;edgeStyle=orthogonalEdgeStyle;fontStyle=1;entryX=0.5;entryY=1;entryDx=0;entryDy=0;" parent="1" source="5XdCu-Sr5xr-vJQQU0_O-36" target="XRP2DXV7LQ1C8lFrC8NO-268" edge="1">
          <mxGeometry relative="1" as="geometry">
            <mxPoint x="280" y="1450" as="sourcePoint" />
            <mxPoint x="335" y="1500" as="targetPoint" />
            <Array as="points">
              <mxPoint x="-1400" y="1250" />
              <mxPoint x="-1400" y="1250" />
            </Array>
          </mxGeometry>
        </mxCell>
        <mxCell id="5XdCu-Sr5xr-vJQQU0_O-58" value="dollar_amount" style="swimlane;html=1;fontStyle=0;childLayout=stackLayout;horizontal=1;startSize=30;fillColor=#a0a0a0;horizontalStack=0;resizeParent=1;resizeLast=0;collapsible=1;marginBottom=0;swimlaneFillColor=#ffffff;align=center;rounded=0;shadow=0;comic=0;labelBackgroundColor=none;strokeWidth=2;fontFamily=Verdana;fontSize=14;editable=1;movable=1;resizable=1;rotatable=1;deletable=1;locked=0;connectable=1;enumerate=0;strokeColor=#007FFF;fontColor=#000000;spacing=2;spacingBottom=5;" parent="1" vertex="1">
          <mxGeometry x="-1140" y="1310" width="140" height="90" as="geometry" />
        </mxCell>
        <mxCell id="5XdCu-Sr5xr-vJQQU0_O-59" value="coupon_id" style="shape=partialRectangle;top=0;left=0;right=0;bottom=1;html=1;align=left;verticalAlign=middle;fillColor=none;spacingLeft=60;spacingRight=4;whiteSpace=wrap;overflow=hidden;rotatable=1;points=[[0,0.5],[1,0.5]];portConstraint=eastwest;dropTarget=0;fontStyle=5;editable=1;movable=1;resizable=1;deletable=1;locked=0;connectable=1;comic=0;enumerate=0;" parent="5XdCu-Sr5xr-vJQQU0_O-58" vertex="1">
          <mxGeometry y="30" width="140" height="30" as="geometry" />
        </mxCell>
        <mxCell id="5XdCu-Sr5xr-vJQQU0_O-60" value="PK,FK1" style="shape=partialRectangle;fontStyle=1;top=0;left=0;bottom=0;html=1;fillColor=none;align=left;verticalAlign=middle;spacingLeft=4;spacingRight=4;whiteSpace=wrap;overflow=hidden;rotatable=1;points=[];portConstraint=eastwest;part=1;editable=1;movable=1;resizable=1;deletable=1;locked=0;connectable=1;comic=0;enumerate=0;" parent="5XdCu-Sr5xr-vJQQU0_O-59" vertex="1" connectable="0">
          <mxGeometry width="60" height="30" as="geometry" />
        </mxCell>
        <mxCell id="5XdCu-Sr5xr-vJQQU0_O-61" value="dollars_off" style="shape=partialRectangle;top=0;left=0;right=0;bottom=0;html=1;align=left;verticalAlign=top;fillColor=none;spacingLeft=60;spacingRight=4;whiteSpace=wrap;overflow=hidden;rotatable=1;points=[[0,0.5],[1,0.5]];portConstraint=eastwest;dropTarget=0;editable=1;movable=1;resizable=1;deletable=1;locked=0;connectable=1;comic=0;enumerate=0;fontStyle=1" parent="5XdCu-Sr5xr-vJQQU0_O-58" vertex="1">
          <mxGeometry y="60" width="140" height="30" as="geometry" />
        </mxCell>
        <mxCell id="5XdCu-Sr5xr-vJQQU0_O-62" value="" style="shape=partialRectangle;top=0;left=0;bottom=0;html=1;fillColor=none;align=left;verticalAlign=top;spacingLeft=4;spacingRight=4;whiteSpace=wrap;overflow=hidden;rotatable=1;points=[];portConstraint=eastwest;part=1;editable=1;movable=1;resizable=1;deletable=1;locked=0;connectable=1;comic=0;enumerate=0;fontStyle=1" parent="5XdCu-Sr5xr-vJQQU0_O-61" vertex="1" connectable="0">
          <mxGeometry width="60" height="30" as="geometry" />
        </mxCell>
        <UserObject label="&lt;span style=&quot;&quot;&gt;&lt;font&gt;order&lt;/font&gt;&lt;/span&gt;" tags="" id="XRP2DXV7LQ1C8lFrC8NO-67">
          <mxCell style="swimlane;html=1;fontStyle=0;childLayout=stackLayout;horizontal=1;startSize=30;fillColor=#a0a0a0;horizontalStack=0;resizeParent=1;resizeLast=0;collapsible=1;marginBottom=0;swimlaneFillColor=#ffffff;align=center;rounded=0;shadow=0;comic=0;labelBackgroundColor=none;strokeWidth=2;fontFamily=Verdana;fontSize=14;editable=1;movable=1;resizable=1;rotatable=1;deletable=1;locked=0;connectable=1;enumerate=0;strokeColor=#007FFF;fontColor=#000000;verticalAlign=middle;spacing=2;spacingBottom=5;" parent="1" vertex="1">
            <mxGeometry x="-1600" y="640" width="600" height="180" as="geometry" />
          </mxCell>
        </UserObject>
        <mxCell id="XRP2DXV7LQ1C8lFrC8NO-68" value="order_id" style="shape=partialRectangle;top=0;left=0;right=0;bottom=1;html=1;align=left;verticalAlign=middle;fillColor=none;spacingLeft=34;spacingRight=4;whiteSpace=wrap;overflow=hidden;rotatable=1;points=[[0,0.5],[1,0.5]];portConstraint=eastwest;dropTarget=0;fontStyle=5;movable=1;resizable=1;deletable=1;editable=1;locked=0;connectable=1;comic=0;enumerate=0;strokeWidth=2;strokeColor=#007FFF;" parent="XRP2DXV7LQ1C8lFrC8NO-67" vertex="1">
          <mxGeometry y="30" width="600" height="30" as="geometry" />
        </mxCell>
        <mxCell id="XRP2DXV7LQ1C8lFrC8NO-69" value="PK" style="shape=partialRectangle;top=0;left=0;bottom=0;html=1;fillColor=none;align=left;verticalAlign=middle;spacingLeft=4;spacingRight=4;whiteSpace=wrap;overflow=hidden;rotatable=1;points=[];portConstraint=eastwest;part=1;movable=1;resizable=1;deletable=1;editable=1;locked=0;connectable=1;comic=0;enumerate=0;fontStyle=1" parent="XRP2DXV7LQ1C8lFrC8NO-68" vertex="1" connectable="0">
          <mxGeometry width="30" height="30" as="geometry" />
        </mxCell>
        <mxCell id="XRP2DXV7LQ1C8lFrC8NO-88" value="order_type" style="shape=partialRectangle;top=0;left=0;right=0;bottom=0;html=1;align=left;verticalAlign=middle;fillColor=none;spacingLeft=34;spacingRight=4;whiteSpace=wrap;overflow=hidden;rotatable=1;points=[[0,0.5],[1,0.5]];portConstraint=eastwest;dropTarget=0;movable=1;resizable=1;deletable=1;editable=1;locked=0;connectable=1;comic=0;enumerate=0;fontStyle=1" parent="XRP2DXV7LQ1C8lFrC8NO-67" vertex="1">
          <mxGeometry y="60" width="600" height="20" as="geometry" />
        </mxCell>
        <mxCell id="XRP2DXV7LQ1C8lFrC8NO-89" value="" style="shape=partialRectangle;top=0;left=0;bottom=0;html=1;fillColor=none;align=left;verticalAlign=middle;spacingLeft=4;spacingRight=4;whiteSpace=wrap;overflow=hidden;rotatable=1;points=[];portConstraint=eastwest;part=1;movable=1;resizable=1;deletable=1;editable=1;locked=0;connectable=1;comic=0;enumerate=0;fontStyle=1" parent="XRP2DXV7LQ1C8lFrC8NO-88" vertex="1" connectable="0">
          <mxGeometry width="30" height="20" as="geometry" />
        </mxCell>
        <mxCell id="XRP2DXV7LQ1C8lFrC8NO-92" value="time_requested" style="shape=partialRectangle;top=0;left=0;right=0;bottom=0;html=1;align=left;verticalAlign=middle;fillColor=none;spacingLeft=34;spacingRight=4;whiteSpace=wrap;overflow=hidden;rotatable=1;points=[[0,0.5],[1,0.5]];portConstraint=eastwest;dropTarget=0;movable=1;resizable=1;deletable=1;editable=1;locked=0;connectable=1;comic=0;enumerate=0;fontStyle=1" parent="XRP2DXV7LQ1C8lFrC8NO-67" vertex="1">
          <mxGeometry y="80" width="600" height="20" as="geometry" />
        </mxCell>
        <mxCell id="XRP2DXV7LQ1C8lFrC8NO-93" value="" style="shape=partialRectangle;top=0;left=0;bottom=0;html=1;fillColor=none;align=left;verticalAlign=middle;spacingLeft=4;spacingRight=4;whiteSpace=wrap;overflow=hidden;rotatable=1;points=[];portConstraint=eastwest;part=1;movable=1;resizable=1;deletable=1;editable=1;locked=0;connectable=1;comic=0;enumerate=0;fontStyle=1" parent="XRP2DXV7LQ1C8lFrC8NO-92" vertex="1" connectable="0">
          <mxGeometry width="30" height="20" as="geometry" />
        </mxCell>
        <mxCell id="XRP2DXV7LQ1C8lFrC8NO-70" value="is_complete" style="shape=partialRectangle;top=0;left=0;right=0;bottom=0;html=1;align=left;verticalAlign=middle;fillColor=none;spacingLeft=34;spacingRight=4;whiteSpace=wrap;overflow=hidden;rotatable=1;points=[[0,0.5],[1,0.5]];portConstraint=eastwest;dropTarget=0;movable=1;resizable=1;deletable=1;editable=1;locked=0;connectable=1;comic=0;enumerate=0;fontStyle=1" parent="XRP2DXV7LQ1C8lFrC8NO-67" vertex="1">
          <mxGeometry y="100" width="600" height="20" as="geometry" />
        </mxCell>
        <mxCell id="XRP2DXV7LQ1C8lFrC8NO-71" value="" style="shape=partialRectangle;top=0;left=0;bottom=0;html=1;fillColor=none;align=left;verticalAlign=middle;spacingLeft=4;spacingRight=4;whiteSpace=wrap;overflow=hidden;rotatable=1;points=[];portConstraint=eastwest;part=1;movable=1;resizable=1;deletable=1;editable=1;locked=0;connectable=1;comic=0;enumerate=0;fontStyle=1" parent="XRP2DXV7LQ1C8lFrC8NO-70" vertex="1" connectable="0">
          <mxGeometry width="30" height="20" as="geometry" />
        </mxCell>
        <mxCell id="XRP2DXV7LQ1C8lFrC8NO-72" value="base_cost" style="shape=partialRectangle;top=0;left=0;right=0;bottom=0;html=1;align=left;verticalAlign=middle;fillColor=none;spacingLeft=34;spacingRight=4;whiteSpace=wrap;overflow=hidden;rotatable=1;points=[[0,0.5],[1,0.5]];portConstraint=eastwest;dropTarget=0;movable=1;resizable=1;deletable=1;editable=1;locked=0;connectable=1;comic=0;enumerate=0;fontStyle=1" parent="XRP2DXV7LQ1C8lFrC8NO-67" vertex="1">
          <mxGeometry y="120" width="600" height="20" as="geometry" />
        </mxCell>
        <mxCell id="XRP2DXV7LQ1C8lFrC8NO-73" value="" style="shape=partialRectangle;top=0;left=0;bottom=0;html=1;fillColor=none;align=left;verticalAlign=middle;spacingLeft=4;spacingRight=4;whiteSpace=wrap;overflow=hidden;rotatable=1;points=[];portConstraint=eastwest;part=1;movable=1;resizable=1;deletable=1;editable=1;locked=0;connectable=1;comic=0;enumerate=0;fontStyle=1" parent="XRP2DXV7LQ1C8lFrC8NO-72" vertex="1" connectable="0">
          <mxGeometry width="30" height="20" as="geometry" />
        </mxCell>
        <mxCell id="XRP2DXV7LQ1C8lFrC8NO-74" value="base_price" style="shape=partialRectangle;top=0;left=0;right=0;bottom=0;html=1;align=left;verticalAlign=middle;fillColor=none;spacingLeft=34;spacingRight=4;whiteSpace=wrap;overflow=hidden;rotatable=1;points=[[0,0.5],[1,0.5]];portConstraint=eastwest;dropTarget=0;movable=1;resizable=1;deletable=1;editable=1;locked=0;connectable=1;comic=0;enumerate=0;fontStyle=1" parent="XRP2DXV7LQ1C8lFrC8NO-67" vertex="1">
          <mxGeometry y="140" width="600" height="20" as="geometry" />
        </mxCell>
        <mxCell id="XRP2DXV7LQ1C8lFrC8NO-75" value="" style="shape=partialRectangle;top=0;left=0;bottom=0;html=1;fillColor=none;align=left;verticalAlign=middle;spacingLeft=4;spacingRight=4;whiteSpace=wrap;overflow=hidden;rotatable=1;points=[];portConstraint=eastwest;part=1;movable=1;resizable=1;deletable=1;editable=1;locked=0;connectable=1;comic=0;enumerate=0;fontStyle=1" parent="XRP2DXV7LQ1C8lFrC8NO-74" vertex="1" connectable="0">
          <mxGeometry width="30" height="20" as="geometry" />
        </mxCell>
        <mxCell id="XRP2DXV7LQ1C8lFrC8NO-86" value="total_discount" style="shape=partialRectangle;top=0;left=0;right=0;bottom=0;html=1;align=left;verticalAlign=middle;fillColor=none;spacingLeft=34;spacingRight=4;whiteSpace=wrap;overflow=hidden;rotatable=1;points=[[0,0.5],[1,0.5]];portConstraint=eastwest;dropTarget=0;movable=1;resizable=1;deletable=1;editable=1;locked=0;connectable=1;comic=0;enumerate=0;fontStyle=1" parent="XRP2DXV7LQ1C8lFrC8NO-67" vertex="1">
          <mxGeometry y="160" width="600" height="20" as="geometry" />
        </mxCell>
        <mxCell id="XRP2DXV7LQ1C8lFrC8NO-87" value="" style="shape=partialRectangle;top=0;left=0;bottom=0;html=1;fillColor=none;align=left;verticalAlign=middle;spacingLeft=4;spacingRight=4;whiteSpace=wrap;overflow=hidden;rotatable=1;points=[];portConstraint=eastwest;part=1;movable=1;resizable=1;deletable=1;editable=1;locked=0;connectable=1;comic=0;enumerate=0;fontStyle=1" parent="XRP2DXV7LQ1C8lFrC8NO-86" vertex="1" connectable="0">
          <mxGeometry width="30" height="20" as="geometry" />
        </mxCell>
        <mxCell id="ft23h2SvaQS1Ued9Bh15-1" value="&lt;span style=&quot;font-weight: normal;&quot;&gt;&lt;font color=&quot;#000000&quot;&gt;delivery_customer&lt;/font&gt;&lt;/span&gt;" style="swimlane;html=1;fontStyle=0;childLayout=stackLayout;horizontal=1;startSize=30;fillColor=#a0a0a0;horizontalStack=0;resizeParent=1;resizeLast=0;collapsible=1;marginBottom=0;swimlaneFillColor=#ffffff;align=center;rounded=0;shadow=0;comic=0;labelBackgroundColor=none;strokeWidth=2;fontFamily=Verdana;fontSize=14;editable=1;movable=1;resizable=1;rotatable=1;deletable=1;locked=0;connectable=1;enumerate=0;strokeColor=#007FFF;fontColor=#000000;verticalAlign=middle;spacing=2;spacingBottom=5;" vertex="1" parent="1">
          <mxGeometry x="-1480" y="1300" width="160" height="100" as="geometry" />
        </mxCell>
        <mxCell id="ft23h2SvaQS1Ued9Bh15-2" value="customer_id" style="shape=partialRectangle;top=0;left=0;right=0;bottom=1;html=1;align=left;verticalAlign=middle;fillColor=none;spacingLeft=60;spacingRight=4;whiteSpace=wrap;overflow=hidden;rotatable=1;points=[[0,0.5],[1,0.5]];portConstraint=eastwest;dropTarget=0;fontStyle=5;editable=1;movable=1;resizable=1;deletable=1;locked=0;connectable=1;comic=0;enumerate=0;" vertex="1" parent="ft23h2SvaQS1Ued9Bh15-1">
          <mxGeometry y="30" width="160" height="30" as="geometry" />
        </mxCell>
        <mxCell id="ft23h2SvaQS1Ued9Bh15-3" value="PK,FK1" style="shape=partialRectangle;fontStyle=1;top=0;left=0;bottom=0;html=1;fillColor=none;align=left;verticalAlign=middle;spacingLeft=4;spacingRight=4;whiteSpace=wrap;overflow=hidden;rotatable=1;points=[];portConstraint=eastwest;part=1;editable=1;movable=1;resizable=1;deletable=1;locked=0;connectable=1;comic=0;enumerate=0;" vertex="1" connectable="0" parent="ft23h2SvaQS1Ued9Bh15-2">
          <mxGeometry width="60" height="30" as="geometry" />
        </mxCell>
        <mxCell id="ft23h2SvaQS1Ued9Bh15-4" value="address" style="shape=partialRectangle;top=0;left=0;right=0;bottom=0;html=1;align=left;verticalAlign=middle;fillColor=none;spacingLeft=60;spacingRight=4;whiteSpace=wrap;overflow=hidden;rotatable=1;points=[[0,0.5],[1,0.5]];portConstraint=eastwest;dropTarget=0;editable=1;movable=1;resizable=1;deletable=1;locked=0;connectable=1;comic=0;enumerate=0;fontStyle=1" vertex="1" parent="ft23h2SvaQS1Ued9Bh15-1">
          <mxGeometry y="60" width="160" height="40" as="geometry" />
        </mxCell>
        <mxCell id="ft23h2SvaQS1Ued9Bh15-5" value="" style="shape=partialRectangle;top=0;left=0;bottom=0;html=1;fillColor=none;align=left;verticalAlign=top;spacingLeft=4;spacingRight=4;whiteSpace=wrap;overflow=hidden;rotatable=1;points=[];portConstraint=eastwest;part=1;editable=1;movable=1;resizable=1;deletable=1;locked=0;connectable=1;comic=0;enumerate=0;fontStyle=1" vertex="1" connectable="0" parent="ft23h2SvaQS1Ued9Bh15-4">
          <mxGeometry width="60" height="40" as="geometry" />
        </mxCell>
        <mxCell id="XRP2DXV7LQ1C8lFrC8NO-123" value="&lt;p style=&quot;line-height: 110%;&quot;&gt;&lt;/p&gt;&lt;div style=&quot;line-height: 110%;&quot;&gt;&lt;span style=&quot;background-color: initial; font-weight: normal;&quot;&gt;&lt;font color=&quot;#050505&quot;&gt;dine_in&lt;/font&gt;&lt;/span&gt;&lt;/div&gt;&lt;p&gt;&lt;/p&gt;" style="swimlane;html=1;fontStyle=1;childLayout=stackLayout;horizontal=1;startSize=30;fillColor=#a0a0a0;horizontalStack=0;resizeParent=1;resizeLast=0;collapsible=1;marginBottom=0;swimlaneFillColor=#ffffff;align=center;rounded=0;shadow=0;comic=0;labelBackgroundColor=none;strokeWidth=2;fontFamily=Verdana;fontSize=14;editable=1;movable=1;resizable=1;rotatable=1;deletable=1;locked=0;connectable=1;enumerate=0;strokeColor=#007FFF;fontColor=#ffffff;verticalAlign=middle;spacing=2;spacingBottom=5;" parent="1" vertex="1">
          <mxGeometry x="-1310" y="920" width="120" height="70" as="geometry" />
        </mxCell>
        <mxCell id="XRP2DXV7LQ1C8lFrC8NO-124" value="order_id" style="shape=partialRectangle;top=0;left=0;right=0;bottom=1;html=1;align=left;verticalAlign=middle;fillColor=none;spacingLeft=60;spacingRight=4;whiteSpace=wrap;overflow=hidden;rotatable=1;points=[[0,0.5],[1,0.5]];portConstraint=eastwest;dropTarget=0;fontStyle=5;editable=1;movable=1;resizable=1;deletable=1;locked=0;connectable=1;comic=0;enumerate=0;strokeColor=#007FFF;strokeWidth=2;" parent="XRP2DXV7LQ1C8lFrC8NO-123" vertex="1">
          <mxGeometry y="30" width="120" height="20" as="geometry" />
        </mxCell>
        <mxCell id="XRP2DXV7LQ1C8lFrC8NO-125" value="PK,FK1" style="shape=partialRectangle;fontStyle=1;top=0;left=0;bottom=0;html=1;fillColor=none;align=left;verticalAlign=middle;spacingLeft=4;spacingRight=4;whiteSpace=wrap;overflow=hidden;rotatable=1;points=[];portConstraint=eastwest;part=1;editable=1;movable=1;resizable=1;deletable=1;locked=0;connectable=1;comic=0;enumerate=0;" parent="XRP2DXV7LQ1C8lFrC8NO-124" vertex="1" connectable="0">
          <mxGeometry width="60" height="20" as="geometry" />
        </mxCell>
        <mxCell id="XRP2DXV7LQ1C8lFrC8NO-126" value="&lt;span&gt;table&lt;/span&gt;" style="shape=partialRectangle;top=0;left=0;right=0;bottom=0;html=1;align=left;verticalAlign=middle;fillColor=none;spacingLeft=60;spacingRight=4;whiteSpace=wrap;overflow=hidden;rotatable=1;points=[[0,0.5],[1,0.5]];portConstraint=eastwest;dropTarget=0;editable=1;movable=1;resizable=1;deletable=1;locked=0;connectable=1;comic=0;enumerate=0;strokeWidth=1;fontStyle=1" parent="XRP2DXV7LQ1C8lFrC8NO-123" vertex="1">
          <mxGeometry y="50" width="120" height="20" as="geometry" />
        </mxCell>
        <mxCell id="XRP2DXV7LQ1C8lFrC8NO-127" value="" style="shape=partialRectangle;top=0;left=0;bottom=0;html=1;fillColor=none;align=left;verticalAlign=top;spacingLeft=4;spacingRight=4;whiteSpace=wrap;overflow=hidden;rotatable=1;points=[];portConstraint=eastwest;part=1;editable=1;movable=1;resizable=1;deletable=1;locked=0;connectable=1;comic=0;enumerate=0;fontStyle=1" parent="XRP2DXV7LQ1C8lFrC8NO-126" vertex="1" connectable="0">
          <mxGeometry width="60" height="20" as="geometry" />
        </mxCell>
        <mxCell id="XRP2DXV7LQ1C8lFrC8NO-319" value="&lt;span style=&quot;font-weight: normal;&quot;&gt;&lt;font color=&quot;#000000&quot;&gt;delivery&lt;/font&gt;&lt;/span&gt;" style="swimlane;html=1;fontStyle=0;childLayout=stackLayout;horizontal=1;startSize=30;fillColor=#a0a0a0;horizontalStack=0;resizeParent=1;resizeLast=0;collapsible=1;marginBottom=0;swimlaneFillColor=#ffffff;align=center;rounded=0;shadow=0;comic=0;labelBackgroundColor=none;strokeWidth=2;fontFamily=Verdana;fontSize=14;editable=1;movable=1;resizable=1;rotatable=1;deletable=1;locked=0;connectable=1;enumerate=0;strokeColor=#007FFF;fontColor=#000000;verticalAlign=middle;spacing=2;spacingBottom=5;" parent="1" vertex="1">
          <mxGeometry x="-1650" y="920" width="160" height="70" as="geometry" />
        </mxCell>
        <mxCell id="XRP2DXV7LQ1C8lFrC8NO-320" value="order_id" style="shape=partialRectangle;top=0;left=0;right=0;bottom=1;html=1;align=left;verticalAlign=middle;fillColor=none;spacingLeft=60;spacingRight=4;whiteSpace=wrap;overflow=hidden;rotatable=1;points=[[0,0.5],[1,0.5]];portConstraint=eastwest;dropTarget=0;fontStyle=5;editable=1;movable=1;resizable=1;deletable=1;locked=0;connectable=1;comic=0;enumerate=0;" parent="XRP2DXV7LQ1C8lFrC8NO-319" vertex="1">
          <mxGeometry y="30" width="160" height="20" as="geometry" />
        </mxCell>
        <mxCell id="XRP2DXV7LQ1C8lFrC8NO-321" value="PK,FK1" style="shape=partialRectangle;fontStyle=1;top=0;left=0;bottom=0;html=1;fillColor=none;align=left;verticalAlign=middle;spacingLeft=4;spacingRight=4;whiteSpace=wrap;overflow=hidden;rotatable=1;points=[];portConstraint=eastwest;part=1;editable=1;movable=1;resizable=1;deletable=1;locked=0;connectable=1;comic=0;enumerate=0;" parent="XRP2DXV7LQ1C8lFrC8NO-320" vertex="1" connectable="0">
          <mxGeometry width="60" height="20" as="geometry" />
        </mxCell>
        <mxCell id="XRP2DXV7LQ1C8lFrC8NO-324" value="customer_id" style="shape=partialRectangle;top=0;left=0;right=0;bottom=0;html=1;align=left;verticalAlign=middle;fillColor=none;spacingLeft=60;spacingRight=4;whiteSpace=wrap;overflow=hidden;rotatable=1;points=[[0,0.5],[1,0.5]];portConstraint=eastwest;dropTarget=0;editable=1;movable=1;resizable=1;deletable=1;locked=0;connectable=1;comic=0;enumerate=0;fontStyle=1" parent="XRP2DXV7LQ1C8lFrC8NO-319" vertex="1">
          <mxGeometry y="50" width="160" height="20" as="geometry" />
        </mxCell>
        <mxCell id="XRP2DXV7LQ1C8lFrC8NO-325" value="&amp;nbsp; &amp;nbsp; &amp;nbsp; FK2" style="shape=partialRectangle;top=0;left=0;bottom=0;html=1;fillColor=none;align=left;verticalAlign=middle;spacingLeft=4;spacingRight=4;whiteSpace=wrap;overflow=hidden;rotatable=1;points=[];portConstraint=eastwest;part=1;editable=1;movable=1;resizable=1;deletable=1;locked=0;connectable=1;comic=0;enumerate=0;fontStyle=1" parent="XRP2DXV7LQ1C8lFrC8NO-324" vertex="1" connectable="0">
          <mxGeometry width="60" height="20" as="geometry" />
        </mxCell>
        <mxCell id="5XdCu-Sr5xr-vJQQU0_O-57" value="" style="group;movable=1;resizable=1;rotatable=1;deletable=1;editable=1;locked=0;connectable=1;fontStyle=1" parent="1" vertex="1" connectable="0">
          <mxGeometry x="-1415" y="1230" width="125" height="34" as="geometry" />
        </mxCell>
        <mxCell id="ft23h2SvaQS1Ued9Bh15-880" value="" style="group" vertex="1" connectable="0" parent="5XdCu-Sr5xr-vJQQU0_O-57">
          <mxGeometry x="-8" width="133" height="34" as="geometry" />
        </mxCell>
        <mxCell id="5XdCu-Sr5xr-vJQQU0_O-36" value="&lt;span style=&quot;font-size: 24px;&quot;&gt;&lt;span&gt;o&lt;/span&gt;&lt;/span&gt;" style="ellipse;whiteSpace=wrap;html=1;aspect=fixed;movable=1;resizable=1;rotatable=1;deletable=1;editable=1;locked=0;connectable=1;comic=0;enumerate=0;fontStyle=1" parent="ft23h2SvaQS1Ued9Bh15-880" vertex="1">
          <mxGeometry x="8" width="30" height="30" as="geometry" />
        </mxCell>
        <mxCell id="5XdCu-Sr5xr-vJQQU0_O-37" value="" style="endArrow=none;html=1;rounded=0;targetPerimeterSpacing=0;strokeWidth=4;shadow=0;movable=1;resizable=1;rotatable=1;deletable=1;editable=1;locked=0;connectable=1;comic=0;enumerate=0;fontStyle=1" parent="ft23h2SvaQS1Ued9Bh15-880" edge="1">
          <mxGeometry width="50" height="50" relative="1" as="geometry">
            <mxPoint y="34" as="sourcePoint" />
            <mxPoint x="50" y="34" as="targetPoint" />
            <Array as="points" />
          </mxGeometry>
        </mxCell>
        <mxCell id="5XdCu-Sr5xr-vJQQU0_O-38" value="&lt;span&gt;has_address&lt;/span&gt;" style="text;html=1;align=center;verticalAlign=middle;resizable=1;points=[];autosize=1;strokeColor=none;fillColor=none;movable=1;rotatable=1;deletable=1;editable=1;locked=0;connectable=1;comic=0;enumerate=0;fontStyle=1" parent="ft23h2SvaQS1Ued9Bh15-880" vertex="1">
          <mxGeometry x="33" width="100" height="30" as="geometry" />
        </mxCell>
        <mxCell id="ft23h2SvaQS1Ued9Bh15-887" style="edgeStyle=orthogonalEdgeStyle;shape=connector;rounded=0;comic=0;orthogonalLoop=1;jettySize=auto;html=1;exitX=0.5;exitY=0;exitDx=0;exitDy=0;labelBackgroundColor=default;strokeColor=default;strokeWidth=1;align=center;verticalAlign=middle;fontFamily=Helvetica;fontSize=11;fontColor=#990000;startArrow=none;startFill=0;endArrow=none;endFill=0;" edge="1" parent="1" source="ft23h2SvaQS1Ued9Bh15-882" target="XRP2DXV7LQ1C8lFrC8NO-154">
          <mxGeometry relative="1" as="geometry">
            <mxPoint x="-939.9523809523812" y="1150" as="targetPoint" />
            <Array as="points">
              <mxPoint x="-940" y="1220" />
            </Array>
          </mxGeometry>
        </mxCell>
        <mxCell id="ft23h2SvaQS1Ued9Bh15-883" value="" style="endArrow=none;html=1;rounded=0;targetPerimeterSpacing=0;strokeWidth=4;shadow=0;movable=1;resizable=1;rotatable=1;deletable=1;editable=1;locked=0;connectable=1;comic=0;enumerate=0;fontStyle=1;shape=link;" edge="1" parent="1">
          <mxGeometry width="50" height="50" relative="1" as="geometry">
            <mxPoint x="-962" y="1260" as="sourcePoint" />
            <mxPoint x="-912" y="1260" as="targetPoint" />
            <Array as="points" />
          </mxGeometry>
        </mxCell>
        <mxCell id="ft23h2SvaQS1Ued9Bh15-882" value="&lt;span style=&quot;font-size: 24px;&quot;&gt;&lt;span&gt;d&lt;/span&gt;&lt;/span&gt;" style="ellipse;whiteSpace=wrap;html=1;aspect=fixed;movable=1;resizable=1;rotatable=1;deletable=1;editable=1;locked=0;connectable=1;comic=0;enumerate=0;fontStyle=1" vertex="1" parent="1">
          <mxGeometry x="-955" y="1220" width="30" height="30" as="geometry" />
        </mxCell>
        <mxCell id="ft23h2SvaQS1Ued9Bh15-891" value="&lt;span&gt;has_address&lt;/span&gt;" style="text;html=1;align=left;verticalAlign=middle;resizable=1;points=[];autosize=1;strokeColor=none;fillColor=none;movable=1;rotatable=1;deletable=1;editable=1;locked=0;connectable=1;comic=0;enumerate=0;fontStyle=1" vertex="1" parent="1">
          <mxGeometry x="-920.001052631579" y="1215.64" width="100" height="30" as="geometry" />
        </mxCell>
        <mxCell id="ft23h2SvaQS1Ued9Bh15-895" value="pizza" style="swimlane;html=1;fontStyle=0;childLayout=stackLayout;horizontal=1;startSize=30;fillColor=#a0a0a0;horizontalStack=0;resizeParent=1;resizeLast=0;collapsible=1;marginBottom=0;swimlaneFillColor=#ffffff;align=center;rounded=0;shadow=0;comic=0;labelBackgroundColor=none;strokeWidth=2;fontFamily=Verdana;fontSize=14;editable=1;movable=1;resizable=1;rotatable=1;deletable=1;locked=0;connectable=1;enumerate=0;swimlaneLine=1;glass=0;gradientColor=none;container=1;strokeColor=#007FFF;fontColor=#000000;spacing=2;spacingBottom=5;" vertex="1" parent="1">
          <mxGeometry x="-600" y="640" width="160" height="120" as="geometry" />
        </mxCell>
        <mxCell id="ft23h2SvaQS1Ued9Bh15-896" value="pizza_id" style="shape=partialRectangle;top=0;left=0;right=0;bottom=1;html=1;align=left;verticalAlign=middle;fillColor=none;spacingLeft=34;spacingRight=4;whiteSpace=wrap;overflow=hidden;rotatable=1;points=[[0,0.5],[1,0.5]];portConstraint=eastwest;dropTarget=0;fontStyle=5;editable=1;movable=1;resizable=1;deletable=1;locked=0;connectable=1;comic=0;enumerate=0;" vertex="1" parent="ft23h2SvaQS1Ued9Bh15-895">
          <mxGeometry y="30" width="160" height="30" as="geometry" />
        </mxCell>
        <mxCell id="ft23h2SvaQS1Ued9Bh15-897" value="PK" style="shape=partialRectangle;top=0;left=0;bottom=0;html=1;fillColor=none;align=left;verticalAlign=middle;spacingLeft=4;spacingRight=4;whiteSpace=wrap;overflow=hidden;rotatable=1;points=[];portConstraint=eastwest;part=1;editable=1;movable=1;resizable=1;deletable=1;locked=0;connectable=1;comic=0;enumerate=0;fontStyle=1" vertex="1" connectable="0" parent="ft23h2SvaQS1Ued9Bh15-896">
          <mxGeometry width="30" height="30" as="geometry" />
        </mxCell>
        <mxCell id="ft23h2SvaQS1Ued9Bh15-898" value="size" style="shape=partialRectangle;top=0;left=0;right=0;bottom=0;html=1;align=left;verticalAlign=top;fillColor=none;spacingLeft=34;spacingRight=4;whiteSpace=wrap;overflow=hidden;rotatable=1;points=[[0,0.5],[1,0.5]];portConstraint=eastwest;dropTarget=0;editable=1;movable=1;resizable=1;deletable=1;locked=0;connectable=1;comic=0;enumerate=0;fontStyle=1" vertex="1" parent="ft23h2SvaQS1Ued9Bh15-895">
          <mxGeometry y="60" width="160" height="30" as="geometry" />
        </mxCell>
        <mxCell id="ft23h2SvaQS1Ued9Bh15-899" value="" style="shape=partialRectangle;top=0;left=0;bottom=0;html=1;fillColor=none;align=left;verticalAlign=top;spacingLeft=4;spacingRight=4;whiteSpace=wrap;overflow=hidden;rotatable=1;points=[];portConstraint=eastwest;part=1;editable=1;movable=1;resizable=1;deletable=1;locked=0;connectable=1;comic=0;enumerate=0;fontStyle=1" vertex="1" connectable="0" parent="ft23h2SvaQS1Ued9Bh15-898">
          <mxGeometry width="30" height="30" as="geometry" />
        </mxCell>
        <mxCell id="ft23h2SvaQS1Ued9Bh15-900" value="crust" style="shape=partialRectangle;top=0;left=0;right=0;bottom=0;html=1;align=left;verticalAlign=top;fillColor=none;spacingLeft=34;spacingRight=4;whiteSpace=wrap;overflow=hidden;rotatable=1;points=[[0,0.5],[1,0.5]];portConstraint=eastwest;dropTarget=0;editable=1;movable=1;resizable=1;deletable=1;locked=0;connectable=1;comic=0;enumerate=0;fontStyle=1" vertex="1" parent="ft23h2SvaQS1Ued9Bh15-895">
          <mxGeometry y="90" width="160" height="30" as="geometry" />
        </mxCell>
        <mxCell id="ft23h2SvaQS1Ued9Bh15-901" value="" style="shape=partialRectangle;top=0;left=0;bottom=0;html=1;fillColor=none;align=left;verticalAlign=top;spacingLeft=4;spacingRight=4;whiteSpace=wrap;overflow=hidden;rotatable=1;points=[];portConstraint=eastwest;part=1;editable=1;movable=1;resizable=1;deletable=1;locked=0;connectable=1;comic=0;enumerate=0;fontStyle=1" vertex="1" connectable="0" parent="ft23h2SvaQS1Ued9Bh15-900">
          <mxGeometry width="30" height="30" as="geometry" />
        </mxCell>
        <mxCell id="ft23h2SvaQS1Ued9Bh15-923" style="rounded=0;orthogonalLoop=1;jettySize=auto;html=1;startArrow=ERmandOne;startFill=0;endArrow=ERzeroToMany;endFill=0;editable=1;movable=1;resizable=1;rotatable=1;deletable=1;locked=0;connectable=1;comic=0;enumerate=0;edgeStyle=orthogonalEdgeStyle;fontStyle=1;strokeWidth=2;fontColor=#990000;strokeColor=#990000;" edge="1" parent="1" source="ft23h2SvaQS1Ued9Bh15-1" target="XRP2DXV7LQ1C8lFrC8NO-319">
          <mxGeometry relative="1" as="geometry">
            <mxPoint x="-1420" y="1395.6399999999999" as="sourcePoint" />
            <mxPoint x="-1300" y="1275.6399999999999" as="targetPoint" />
            <Array as="points">
              <mxPoint x="-1570" y="1360" />
            </Array>
          </mxGeometry>
        </mxCell>
        <mxCell id="ft23h2SvaQS1Ued9Bh15-924" value="placed by" style="edgeLabel;html=1;align=center;verticalAlign=middle;resizable=0;points=[];labelBorderColor=none;fontStyle=1;fontColor=#990000;" vertex="1" connectable="0" parent="ft23h2SvaQS1Ued9Bh15-923">
          <mxGeometry x="-0.0112" y="2" relative="1" as="geometry">
            <mxPoint x="2" y="-29" as="offset" />
          </mxGeometry>
        </mxCell>
        <mxCell id="5XdCu-Sr5xr-vJQQU0_O-44" value="" style="group;movable=1;resizable=1;rotatable=1;deletable=1;editable=1;locked=0;connectable=1;comic=0;enumerate=0;fontStyle=1" parent="1" vertex="1" connectable="0">
          <mxGeometry x="-1415" y="840" width="120" height="40" as="geometry" />
        </mxCell>
        <mxCell id="XRP2DXV7LQ1C8lFrC8NO-143" value="&lt;font style=&quot;font-size: 24px;&quot;&gt;&lt;span&gt;d&lt;/span&gt;&lt;/font&gt;" style="ellipse;whiteSpace=wrap;html=1;aspect=fixed;movable=1;resizable=1;rotatable=1;deletable=1;editable=1;locked=0;connectable=1;comic=0;enumerate=0;fontStyle=1" parent="5XdCu-Sr5xr-vJQQU0_O-44" vertex="1">
          <mxGeometry width="30" height="30" as="geometry" />
        </mxCell>
        <mxCell id="XRP2DXV7LQ1C8lFrC8NO-145" value="" style="endArrow=none;html=1;rounded=0;shape=link;width=4.4;targetPerimeterSpacing=0;strokeWidth=4;shadow=0;movable=1;resizable=1;rotatable=1;deletable=1;editable=1;locked=0;connectable=1;comic=0;enumerate=0;fontStyle=1" parent="5XdCu-Sr5xr-vJQQU0_O-44" edge="1">
          <mxGeometry width="50" height="50" relative="1" as="geometry">
            <mxPoint x="-8" y="40" as="sourcePoint" />
            <mxPoint x="42" y="40" as="targetPoint" />
            <Array as="points">
              <mxPoint x="20" y="40" />
            </Array>
          </mxGeometry>
        </mxCell>
        <mxCell id="XRP2DXV7LQ1C8lFrC8NO-148" value="&lt;span&gt;order_type&lt;/span&gt;" style="text;html=1;align=center;verticalAlign=middle;resizable=1;points=[];autosize=1;strokeColor=none;fillColor=none;movable=1;rotatable=1;deletable=1;editable=1;locked=0;connectable=1;comic=0;enumerate=0;fontStyle=1" parent="5XdCu-Sr5xr-vJQQU0_O-44" vertex="1">
          <mxGeometry x="25" width="90" height="30" as="geometry" />
        </mxCell>
        <mxCell id="ft23h2SvaQS1Ued9Bh15-926" style="rounded=0;orthogonalLoop=1;jettySize=auto;html=1;endArrow=none;endFill=0;entryX=0.5;entryY=1;entryDx=0;entryDy=0;editable=1;movable=1;resizable=1;rotatable=1;deletable=1;locked=0;connectable=1;comic=0;enumerate=0;edgeStyle=orthogonalEdgeStyle;fontStyle=1" edge="1" parent="1" source="XRP2DXV7LQ1C8lFrC8NO-130" target="XRP2DXV7LQ1C8lFrC8NO-143">
          <mxGeometry relative="1" as="geometry">
            <mxPoint x="-1425" y="870" as="targetPoint" />
            <mxPoint x="-1270" y="930" as="sourcePoint" />
            <Array as="points">
              <mxPoint x="-1400" y="890" />
              <mxPoint x="-1400" y="890" />
            </Array>
          </mxGeometry>
        </mxCell>
        <mxCell id="ft23h2SvaQS1Ued9Bh15-927" style="rounded=0;orthogonalLoop=1;jettySize=auto;html=1;endArrow=none;endFill=0;entryX=0.5;entryY=1;entryDx=0;entryDy=0;editable=1;movable=1;resizable=1;rotatable=1;deletable=1;locked=0;connectable=1;comic=0;enumerate=0;edgeStyle=orthogonalEdgeStyle;fontStyle=1" edge="1" parent="1" source="XRP2DXV7LQ1C8lFrC8NO-319" target="XRP2DXV7LQ1C8lFrC8NO-143">
          <mxGeometry relative="1" as="geometry">
            <mxPoint x="-1425" y="870" as="targetPoint" />
            <mxPoint x="-1270" y="930" as="sourcePoint" />
            <Array as="points">
              <mxPoint x="-1570" y="890" />
              <mxPoint x="-1400" y="890" />
            </Array>
          </mxGeometry>
        </mxCell>
      </root>
    </mxGraphModel>
  </diagram>
</mxfile>
